<svg width="22" height="22" viewBox="0 0 22 22" fill="none" xmlns="http://www.w3.org/2000/svg">
<path d="M9.51384 2.75764C10.1986 1.65634 11.8014 1.65634 12.4862 2.75764L13.9848 5.16806C14.5699 6.10909 15.4994 6.7844 16.5752 7.05006L19.3308 7.73053C20.5898 8.04143 21.0851 9.56583 20.2493 10.5574L18.4199 12.7276C17.7058 13.5748 17.3507 14.6675 17.4305 15.7727L17.6349 18.6037C17.7282 19.8971 16.4315 20.8393 15.2302 20.3508L12.6009 19.2816C11.5745 18.8642 10.4255 18.8642 9.39908 19.2816L6.76981 20.3508C5.56852 20.8393 4.27178 19.8971 4.36515 18.6037L4.5695 15.7727C4.64927 14.6675 4.29424 13.5748 3.58007 12.7276L1.75075 10.5574C0.914942 9.56584 1.41025 8.04143 2.66924 7.73053L5.42481 7.05006C6.50058 6.7844 7.43006 6.10909 8.01515 5.16806L9.51384 2.75764Z" fill="#414358" stroke="#B3B3B3" stroke-width="2.5"/>
</svg>
