<?xml version="1.0" encoding="UTF-8"?>
<svg id="Layer_2" data-name="Layer 2" xmlns="http://www.w3.org/2000/svg" xmlns:xlink="http://www.w3.org/1999/xlink" viewBox="0 0 102.33 86.4">
  <defs>
    <style>
      .cls-1 {
        fill: url(#linear-gradient);
      }

      .cls-1, .cls-2, .cls-3 {
        stroke-width: 0px;
      }

      .cls-2 {
        fill: url(#linear-gradient-2);
      }

      .cls-3 {
        fill: url(#linear-gradient-3);
      }
    </style>
    <linearGradient id="linear-gradient" x1="25.79" y1="82.12" x2="25.79" y2="1" gradientUnits="userSpaceOnUse">
      <stop offset="0" stop-color="red"/>
      <stop offset="1" stop-color="#464961"/>
    </linearGradient>
    <linearGradient id="linear-gradient-2" x1="76.1" y1="82.12" x2="76.1" y2="1" xlink:href="#linear-gradient"/>
    <linearGradient id="linear-gradient-3" x1="59.13" y1="82.12" x2="59.13" y2="1" xlink:href="#linear-gradient"/>
  </defs>
  <g id="Design">
    <g>
      <path class="cls-1" d="M20.21,27.39c1.64-1.64,4.01-2.08,6.05-1.35.78.28,1.52.73,2.14,1.35l15.57,15.57,7.61-7.61L28.26,12.04c4.94-4.94,11.68-6.97,18.11-6.12l2.53-2.53C40.64-1.89,29.59-1,22.28,6.05h-.01s-8,7.99-8,7.99c.73,2.04.28,4.41-1.35,6.05-1.64,1.64-4.01,2.08-6.05,1.35L0,28.3l11.99,12,6.86-6.86c-.73-2.04-.28-4.41,1.35-6.05Z"/>
      <path class="cls-2" d="M69.18,48.58l-11.99,11.99,23.35,23.35c3.31,3.31,8.68,3.31,11.99,0,3.31-3.31,3.31-8.68,0-11.99l-23.35-23.35Z"/>
      <path class="cls-3" d="M101.77,12.22l-6.62,6.62c-3.22,3.22-8.43,3.22-11.65,0-3.22-3.22-3.22-8.43,0-11.65l6.62-6.62c-5.49-1.46-11.59-.06-15.9,4.25-4.24,4.24-5.67,10.21-4.32,15.63l-16.39,16.39-.22.22-7.61,7.61-.22.22-27.04,27.04c-3.31,3.31-3.31,8.68,0,11.99,3.31,3.31,8.68,3.31,11.99,0l23.35-23.35,1.71-1.71,11.99-11.99,1.71-1.71,12.71-12.71c5.42,1.34,11.39-.08,15.63-4.32,4.31-4.31,5.72-10.41,4.25-15.91ZM26.82,80.31c-1.32,1.32-3.47,1.33-4.8,0-1.32-1.32-1.33-3.47,0-4.8,1.33-1.33,3.47-1.32,4.8,0,1.33,1.33,1.33,3.47,0,4.8Z"/>
    </g>
  </g>
</svg>