<?xml version="1.0" encoding="UTF-8"?>
<svg id="Layer_2" data-name="Layer 2" xmlns="http://www.w3.org/2000/svg" viewBox="0 0 483.9 471.67">
  <defs>
    <style>
      .cls-1 {
        font-size: 30.13px;
      }

      .cls-1, .cls-2, .cls-3 {
        font-family: Montserrat-SemiBold, 'Montserrat SemiBold';
        font-weight: 600;
      }

      .cls-1, .cls-2, .cls-3, .cls-4 {
        fill: #fff;
      }

      .cls-5 {
        letter-spacing: -.01em;
      }

      .cls-6 {
        letter-spacing: 0em;
      }

      .cls-7 {
        letter-spacing: 0em;
      }

      .cls-8 {
        letter-spacing: 0em;
      }

      .cls-9 {
        letter-spacing: 0em;
      }

      .cls-10 {
        letter-spacing: 0em;
      }

      .cls-11 {
        letter-spacing: 0em;
      }

      .cls-12 {
        letter-spacing: 0em;
      }

      .cls-13 {
        letter-spacing: -.02em;
      }

      .cls-14 {
        letter-spacing: 0em;
      }

      .cls-15 {
        letter-spacing: 0em;
      }

      .cls-16 {
        fill: #c70000;
        stroke: #fff;
        stroke-miterlimit: 10;
        stroke-width: .5px;
      }

      .cls-17 {
        letter-spacing: 0em;
      }

      .cls-18 {
        letter-spacing: 0em;
      }

      .cls-2 {
        font-size: 19.94px;
      }

      .cls-19 {
        letter-spacing: 0em;
      }

      .cls-20 {
        letter-spacing: 0em;
      }

      .cls-21 {
        letter-spacing: 0em;
      }

      .cls-22 {
        letter-spacing: 0em;
      }

      .cls-3 {
        font-size: 20.18px;
      }

      .cls-4 {
        font-family: Montserrat-Bold, 'Montserrat Bold';
        font-size: 36px;
        font-weight: 700;
      }

      .cls-23 {
        letter-spacing: 0em;
      }

      .cls-24 {
        letter-spacing: -.03em;
      }

      .cls-25 {
        letter-spacing: -.01em;
      }
    </style>
  </defs>
  <g id="Design">
    <text class="cls-4" transform="translate(91.21 30.13)"><tspan class="cls-14" x="0" y="0">M</tspan><tspan class="cls-23" x="29.16" y="0">eme</tspan><tspan class="cls-11" x="95.25" y="0">c</tspan><tspan x="111.17" y="0">oin </tspan><tspan class="cls-17" x="166.97" y="0">I</tspan><tspan class="cls-25" x="175.93" y="0">n</tspan><tspan class="cls-21" x="195.44" y="0">v</tspan><tspan x="212.4" y="0">es</tspan><tspan class="cls-6" x="244.69" y="0">t</tspan><tspan x="256.39" y="0">or </tspan><tspan x="103.16" y="43.2">Issues</tspan></text>
    <g>
      <g>
        <rect class="cls-16" x="255.26" y="354.29" width="172.22" height="76.41" rx="8.85" ry="8.85"/>
        <text class="cls-2" transform="translate(294.76 386.42)"><tspan class="cls-24" x="0" y="0">F</tspan><tspan x="9.01" y="0">ully based</tspan><tspan x="16.45" y="23.93">on luck</tspan></text>
      </g>
      <g>
        <rect class="cls-16" x="68.54" y="136.89" width="172.22" height="76.41" rx="8.85" ry="8.85"/>
        <text class="cls-2" transform="translate(118.09 169.03)"><tspan x="0" y="0">Liquidi</tspan><tspan class="cls-20" x="56.87" y="0">t</tspan><tspan x="63.65" y="0">y</tspan><tspan x="11.85" y="23.93">issues</tspan></text>
      </g>
      <g>
        <rect class="cls-16" x="223.28" y="169.39" width="218.81" height="73.03" rx="9" ry="9"/>
        <text class="cls-1" transform="translate(264.98 214.81)"><tspan x="0" y="0">No met</tspan><tspan class="cls-7" x="92.95" y="0">r</tspan><tspan x="102.92" y="0">ics</tspan></text>
      </g>
      <g>
        <rect class="cls-16" x="206.16" y="258.41" width="277.49" height="76.41" rx="11.23" ry="11.23"/>
        <text class="cls-2" transform="translate(254.46 290.54)"><tspan class="cls-18" x="0" y="0">I</tspan><tspan class="cls-9" x="4.97" y="0">mpossible </tspan><tspan class="cls-8" x="94.62" y="0">t</tspan><tspan class="cls-10" x="101.1" y="0">o ide</tspan><tspan class="cls-19" x="142.18" y="0">n</tspan><tspan x="153.17" y="0">tify </tspan><tspan class="cls-12" x="27.48" y="23.93">t</tspan><tspan x="33.96" y="23.93">oken </tspan><tspan class="cls-22" x="79.55" y="23.93">r</tspan><tspan x="85.87" y="23.93">eliabili</tspan><tspan class="cls-20" x="140.23" y="23.93">t</tspan><tspan x="147.01" y="23.93">y</tspan></text>
      </g>
      <g>
        <rect class="cls-16" x="14.99" y="326.14" width="218.81" height="73.03" rx="9" ry="9"/>
        <text class="cls-1" transform="translate(66.43 371.56)"><tspan x="0" y="0">Rug pulls</tspan></text>
      </g>
      <g>
        <rect class="cls-16" x=".25" y="231.52" width="185.36" height="76.41" rx="9.18" ry="9.18"/>
        <text class="cls-2" transform="translate(36.1 263.65)"><tspan class="cls-15" x="0" y="0">M</tspan><tspan class="cls-10" x="16.15" y="0">ost last less </tspan><tspan x="6.37" y="23.93">than 1 </tspan><tspan class="cls-5" x="63.4" y="23.93">w</tspan><tspan x="77.88" y="23.93">eek</tspan></text>
      </g>
      <g>
        <rect class="cls-16" x="64.01" y="422.49" width="146.57" height="48.92" rx="6.03" ry="6.03"/>
        <text class="cls-3" transform="translate(89.64 452.92)"><tspan x="0" y="0">Honey </tspan><tspan class="cls-13" x="59.33" y="0">P</tspan><tspan x="69.57" y="0">ots</tspan></text>
      </g>
    </g>
  </g>
</svg>