<svg width="782" height="137" viewBox="0 0 782 137" fill="none" xmlns="http://www.w3.org/2000/svg">
<path d="M6.384 7.416V26.616H25.584V33H0V0.983997H25.584V7.416H6.384ZM57.5996 33H51.2156V26.616H57.5996V33ZM32.0156 0.983997H57.5996V20.184H51.2156V26.616H44.8316V20.184H38.3996V33H32.0156V0.983997ZM51.2156 13.8V7.416H38.3996V13.8H51.2156ZM89.6153 7.416H70.4153V13.8H83.2313V20.184H70.4153V26.616H89.6153V33H64.0312V0.983997H89.6153V7.416ZM102.431 0.983997H121.631V33H115.247V20.184H102.431V33H96.0469V7.416H102.431V13.8H115.247V7.416H102.431V0.983997ZM128.062 0.983997H147.263V7.416H140.879V33H134.447V7.416H128.062V0.983997ZM153.703 0.983997H160.087V33H153.703V0.983997ZM185.7 7.416H192.084V33H185.7V7.416ZM166.5 0.983997H185.7V7.416H172.884V33H166.5V0.983997ZM204.9 7.416V26.616H217.716V20.184H211.332V13.8H224.1V33H198.516V0.983997H224.1V7.416H204.9ZM249.712 0.983997H268.912V33H262.528V20.184H249.712V33H243.328V7.416H249.712V13.8H262.528V7.416H249.712V0.983997ZM313.725 7.416H294.525V13.8H313.725V33H288.141V26.616H307.341V20.184H288.141V0.983997H313.725V7.416ZM326.54 0.983997H345.74V33H339.356V20.184H326.54V33H320.156V7.416H326.54V13.8H339.356V7.416H326.54V0.983997ZM352.172 0.983997H377.756V7.416H358.556V13.8H371.372V20.184H358.556V33H352.172V0.983997ZM409.772 7.416H390.572V13.8H403.388V20.184H390.572V26.616H409.772V33H384.188V0.983997H409.772V7.416ZM441.787 33H435.403V26.616H441.787V33ZM416.203 0.983997H441.787V20.184H435.403V26.616H429.019V20.184H422.587V33H416.203V0.983997ZM435.403 13.8V7.416H422.587V13.8H435.403ZM486.6 7.416H467.4V13.8H486.6V33H461.016V26.616H480.216V20.184H461.016V0.983997H486.6V7.416ZM499.415 0.983997V26.616H493.031V0.983997H499.415ZM512.231 0.983997H518.615V33H499.415V26.616H512.231V0.983997ZM550.631 7.416H531.431V13.8H550.631V33H525.047V26.616H544.247V20.184H525.047V0.983997H550.631V7.416ZM557.062 0.983997H576.263V7.416H569.879V33H563.447V7.416H557.062V0.983997ZM589.087 0.983997H608.287V33H601.903V20.184H589.087V33H582.703V7.416H589.087V13.8H601.903V7.416H589.087V0.983997ZM614.719 0.983997H621.103V33H614.719V0.983997ZM646.716 7.416H653.1V33H646.716V7.416ZM627.516 0.983997H646.716V7.416H633.9V33H627.516V0.983997ZM665.915 0.983997H685.115V33H678.731V20.184H665.915V33H659.531V7.416H665.915V13.8H678.731V7.416H665.915V0.983997ZM697.931 13.8H710.747V20.184H697.931V26.616H710.747V20.184H717.131V33H691.547V0.983997H710.747V7.416H697.931V13.8ZM717.131 13.8H710.747V7.416H717.131V13.8ZM729.947 26.616H749.147V33H723.562V0.983997H729.947V26.616ZM781.162 7.416H761.962V13.8H774.778V20.184H761.962V26.616H781.162V33H755.578V0.983997H781.162V7.416ZM25.584 59.416H6.384V65.8H19.2V72.184H6.384V78.616H25.584V85H0V52.984H25.584V59.416ZM51.2156 59.416H57.5996V85H51.2156V59.416ZM32.0156 52.984H51.2156V59.416H38.3996V85H32.0156V52.984ZM70.4153 52.984V78.616H76.8473V85H64.0312V52.984H70.4153ZM76.8473 78.616V72.184H83.2313V78.616H76.8473ZM83.2313 52.984H89.6153V72.184H83.2313V52.984ZM96.0469 52.984H102.431V85H96.0469V52.984ZM134.428 85H128.044V78.616H134.428V85ZM108.844 52.984H134.428V72.184H128.044V78.616H121.66V72.184H115.228V85H108.844V52.984ZM128.044 65.8V59.416H115.228V65.8H128.044ZM140.859 52.984H166.443V85H140.859V52.984ZM160.059 78.616V59.416H147.243V78.616H160.059ZM192.075 59.416H198.459V85H192.075V59.416ZM172.875 52.984H192.075V59.416H179.259V85H172.875V52.984ZM230.475 59.416H236.907V85H230.475V59.416ZM204.891 52.984H230.475V59.416H224.091V85H217.707V59.416H211.275V85H204.891V52.984ZM268.865 59.416H249.665V65.8H262.481V72.184H249.665V78.616H268.865V85H243.281V52.984H268.865V59.416ZM294.497 59.416H300.881V85H294.497V59.416ZM275.297 52.984H294.497V59.416H281.681V85H275.297V52.984ZM307.312 52.984H326.513V59.416H320.129V85H313.697V59.416H307.312V52.984ZM345.75 52.984H371.334V59.416H352.134V65.8H364.95V72.184H352.134V85H345.75V52.984ZM377.766 52.984H403.35V85H377.766V52.984ZM396.966 78.616V59.416H384.15V78.616H396.966ZM435.365 85H428.981V78.616H435.365V85ZM409.781 52.984H435.365V72.184H428.981V78.616H422.597V72.184H416.165V85H409.781V52.984ZM428.981 65.8V59.416H416.165V65.8H428.981ZM480.178 59.416H486.61V85H480.178V59.416ZM454.594 52.984H480.178V59.416H473.794V85H467.41V59.416H460.978V85H454.594V52.984ZM518.568 59.416H499.368V65.8H512.184V72.184H499.368V78.616H518.568V85H492.984V52.984H518.568V59.416ZM550.584 59.416H557.016V85H550.584V59.416ZM525 52.984H550.584V59.416H544.2V85H537.816V59.416H531.384V85H525V52.984ZM588.975 59.416H569.775V65.8H582.591V72.184H569.775V78.616H588.975V85H563.391V52.984H588.975V59.416ZM601.79 59.416V78.616H620.99V85H595.406V52.984H620.99V59.416H601.79ZM627.422 52.984H653.006V85H627.422V52.984ZM646.622 78.616V59.416H633.806V78.616H646.622ZM659.438 52.984H665.822V85H659.438V52.984ZM691.434 59.416H697.818V85H691.434V59.416ZM672.234 52.984H691.434V59.416H678.618V85H672.234V52.984ZM19.2 111.416H25.584V137H0V104.984H19.2V111.416H6.384V130.616H19.2V111.416ZM57.5996 111.416H38.3996V117.8H51.2156V124.184H38.3996V130.616H57.5996V137H32.0156V104.984H57.5996V111.416ZM70.4153 111.416V130.616H83.2313V124.184H76.8473V117.8H89.6153V137H64.0312V104.984H89.6153V111.416H70.4153ZM121.631 111.416H102.431V117.8H115.247V124.184H102.431V130.616H121.631V137H96.0469V104.984H121.631V111.416ZM147.263 111.416H153.647V137H147.263V111.416ZM128.062 104.984H147.263V111.416H134.447V137H128.062V104.984ZM185.662 111.416H166.462V117.8H185.662V137H160.078V130.616H179.278V124.184H160.078V104.984H185.662V111.416ZM211.275 104.984H230.475V137H224.091V124.184H211.275V137H204.891V111.416H211.275V117.8H224.091V111.416H211.275V104.984ZM256.059 111.416H262.443V137H256.059V111.416ZM236.859 104.984H256.059V111.416H243.243V137H236.859V104.984ZM287.979 111.416H294.363V137H268.779V104.984H287.979V111.416H275.163V130.616H287.979V111.416ZM319.697 111.416V130.616H338.897V137H313.312V104.984H338.897V111.416H319.697ZM370.912 137H364.528V130.616H370.912V137ZM345.328 104.984H370.912V124.184H364.528V130.616H358.144V124.184H351.712V137H345.328V104.984ZM364.528 117.8V111.416H351.712V117.8H364.528ZM402.928 111.416H383.728V117.8H396.544V124.184H383.728V130.616H402.928V137H377.344V104.984H402.928V111.416ZM415.743 104.984H434.943V137H428.559V124.184H415.743V137H409.359V111.416H415.743V117.8H428.559V111.416H415.743V104.984ZM441.375 104.984H460.575V111.416H454.191V137H447.759V111.416H441.375V104.984ZM467.016 104.984H492.6V137H467.016V104.984ZM486.216 130.616V111.416H473.4V130.616H486.216ZM524.615 137H518.231V130.616H524.615V137ZM499.031 104.984H524.615V124.184H518.231V130.616H511.847V124.184H505.415V137H499.031V104.984ZM518.231 117.8V111.416H505.415V117.8H518.231ZM556.631 111.416H537.431V117.8H556.631V137H531.047V130.616H550.247V124.184H531.047V104.984H556.631V111.416ZM582.243 104.984H601.443V137H595.059V124.184H582.243V137H575.859V111.416H582.243V117.8H595.059V111.416H582.243V104.984ZM614.259 130.616H633.459V137H607.875V104.984H614.259V130.616ZM639.891 104.984H646.275V137H639.891V104.984ZM671.888 137V124.184H678.272V137H671.888ZM671.888 111.416V124.184H659.072V137H652.688V104.984H659.072V117.8H665.504V111.416H671.888ZM678.272 104.984V111.416H671.888V104.984H678.272ZM710.287 111.416H691.087V117.8H703.903V124.184H691.087V130.616H710.287V137H684.703V104.984H710.287V111.416ZM723.103 137H716.719V130.616H723.103V137Z" fill="url(#paint0_linear_1332_215)"/>
<defs>
<linearGradient id="paint0_linear_1332_215" x1="0" y1="72" x2="788" y2="72" gradientUnits="userSpaceOnUse">
<stop stop-color="#07E993"/>
<stop offset="1" stop-color="#7A4AB5"/>
</linearGradient>
</defs>
</svg>
