<?xml version="1.0" encoding="UTF-8"?>
<svg id="Layer_2" data-name="Layer 2" xmlns="http://www.w3.org/2000/svg" xmlns:xlink="http://www.w3.org/1999/xlink" viewBox="0 0 79.98 87.76">
  <defs>
    <style>
      .cls-1 {
        fill: url(#linear-gradient);
      }

      .cls-1, .cls-2 {
        stroke-width: 0px;
      }

      .cls-2 {
        fill: url(#linear-gradient-2);
      }
    </style>
    <linearGradient id="linear-gradient" x1="31.35" y1="86.22" x2="46.6" y2="-.3" gradientUnits="userSpaceOnUse">
      <stop offset="0" stop-color="red"/>
      <stop offset="1" stop-color="#464961"/>
    </linearGradient>
    <linearGradient id="linear-gradient-2" x1="36.94" y1="87.2" x2="52.18" y2=".68" xlink:href="#linear-gradient"/>
  </defs>
  <g id="Design">
    <g>
      <path class="cls-1" d="M79.66,35.81l-11.11-22c-.4-.77-1.14-1.28-1.97-1.34l-17.78.08c-.77-2.14-2.22-3.9-4.22-5.07v-2.85c0-2.57-2.05-4.65-4.62-4.65s-4.59,2.08-4.59,4.65v2.85c-1.99,1.14-3.45,2.93-4.22,5.07l-17.78-.08c-.85.06-1.6.57-1.97,1.34L.29,35.81c-.29.68-.37,1.45-.2,2.11,1.91,6.84,7.18,11.23,13.42,11.23s11.57-4.39,13.45-11.23c.2-.66.11-1.42-.2-2.11l-8.63-17.07,13.08.03c.77,2.11,2.25,3.85,4.19,4.96v25.33c1.48-.34,3.02-.51,4.59-.51s3.13.17,4.62.51v-25.33c1.94-1.11,3.39-2.85,4.16-4.96l13.11-.03-8.66,17.07c-.29.68-.37,1.45-.23,2.11,1.91,6.84,7.21,11.23,13.48,11.23s11.54-4.39,13.45-11.23c.17-.66.08-1.42-.23-2.11ZM20.72,34.93H6.33l7.18-14.25,7.21,14.25ZM59.23,34.93l7.21-14.27,7.21,14.27h-14.42Z"/>
      <path class="cls-2" d="M39.98,52.06c-9.86,0-17.85,7.99-17.85,17.85s7.99,17.85,17.85,17.85,17.85-7.99,17.85-17.85-7.99-17.85-17.85-17.85ZM48.43,67.37l-9.37,9.37c-.43.43-1,.65-1.57.65s-1.14-.22-1.57-.65l-4.66-4.65c-.87-.87-.87-2.27,0-3.14.87-.87,2.27-.87,3.14,0l3.09,3.08,7.8-7.8c.87-.87,2.27-.87,3.14,0,.87.87.87,2.27,0,3.14Z"/>
    </g>
  </g>
</svg>