<?xml version="1.0" encoding="UTF-8"?>
<svg id="Layer_2" data-name="Layer 2" xmlns="http://www.w3.org/2000/svg" xmlns:xlink="http://www.w3.org/1999/xlink" viewBox="0 0 91.19 87.76">
  <defs>
    <style>
      .cls-1 {
        fill: url(#linear-gradient);
      }

      .cls-1, .cls-2, .cls-3, .cls-4, .cls-5 {
        stroke-width: 0px;
      }

      .cls-2 {
        fill: url(#linear-gradient-4);
      }

      .cls-3 {
        fill: url(#linear-gradient-2);
      }

      .cls-4 {
        fill: url(#linear-gradient-3);
      }

      .cls-5 {
        fill: url(#linear-gradient-5);
      }
    </style>
    <linearGradient id="linear-gradient" x1="18.01" y1="79.72" x2="56.24" y2="3.68" gradientUnits="userSpaceOnUse">
      <stop offset="0" stop-color="red"/>
      <stop offset="1" stop-color="#464961"/>
    </linearGradient>
    <linearGradient id="linear-gradient-2" x1="61.88" y1="101.78" x2="100.11" y2="25.74" xlink:href="#linear-gradient"/>
    <linearGradient id="linear-gradient-3" x1="25.89" y1="83.69" x2="64.13" y2="7.65" xlink:href="#linear-gradient"/>
    <linearGradient id="linear-gradient-4" x1="46.38" y1="93.99" x2="84.61" y2="17.95" xlink:href="#linear-gradient"/>
    <linearGradient id="linear-gradient-5" x1="8.96" y1="75.17" x2="47.19" y2="-.87" xlink:href="#linear-gradient"/>
  </defs>
  <g id="Design">
    <g>
      <path class="cls-1" d="M75.99,10.05c-1.45-3.75-.67-6.93,2.12-8.86,2.57-1.78,6.05-1.55,8.37.56,2.31,2.09,2.88,5.56,1.35,8.28-1.7,3.04-4.73,4.03-8.89,2.85-5.07,5.35-10.18,10.74-15.31,16.15,1.06,2.23,1.15,4.42-.05,6.57-.95,1.7-2.4,2.78-4.29,3.27-3.44.9-7.87-1.23-8.38-6.28-.21-.08-.44-.18-.69-.25-3.47-.98-6.93-1.94-10.4-2.93-.49-.14-.8-.09-1.17.34-2.29,2.7-5.69,3.26-8.77,1.48-.14-.08-.28-.16-.49-.28-4.56,3.29-9.13,6.6-13.74,9.92.53,2.11.36,4.1-.86,5.91-.85,1.25-1.99,2.13-3.42,2.61-2.91.99-6.09-.1-7.79-2.66-1.71-2.58-1.45-5.98.64-8.29,2.25-2.49,5.36-2.82,9.06-.91,4.54-3.28,9.11-6.58,13.7-9.89-.21-1.12-.39-2.19-.19-3.31.59-3.26,3.4-5.6,6.76-5.56,3.28.04,6.09,2.46,6.52,5.7.08.62.32.87.91,1.03,3.54.97,7.06,1.98,10.59,2.97.12.03.25.05.46.08.97-1.31,2.22-2.31,3.85-2.75,1.59-.42,3.15-.28,4.74.42,5.11-5.39,10.21-10.78,15.34-16.19ZM36.11,25.47c-.02-1.48-1.19-2.62-2.68-2.61-1.46.01-2.66,1.23-2.64,2.67.02,1.44,1.25,2.63,2.7,2.62,1.47-.02,2.63-1.21,2.61-2.69ZM60.37,32.28c-.02-1.46-1.22-2.61-2.7-2.59-1.48.02-2.62,1.19-2.6,2.68.02,1.47,1.22,2.63,2.69,2.61,1.45-.02,2.63-1.25,2.61-2.7ZM84.59,6.77c.02-1.48-1.14-2.66-2.61-2.68-1.47-.01-2.67,1.16-2.69,2.62-.02,1.44,1.19,2.68,2.63,2.7,1.44.02,2.65-1.18,2.67-2.64ZM11.87,43.03c0-1.48-1.15-2.66-2.62-2.68-1.46-.01-2.66,1.17-2.67,2.64-.01,1.45,1.18,2.68,2.63,2.69,1.44.01,2.66-1.19,2.66-2.65Z"/>
      <g>
        <path class="cls-3" d="M91.17,61.87c0-7.76-.03-15.52.02-23.27,0-1.65-.9-2.62-2.63-2.6-4.45.06-8.89.02-13.34.02-1.75,0-2.49.75-2.51,2.48,0,.13,0,.26,0,.39,0,15.32,0,30.64,0,45.97,0,.26-.01.52,0,.78.08,1.19.75,1.92,1.93,2.07.29.04.58.04.87.04,4.28,0,8.57,0,12.85,0,.32,0,.65,0,.97-.05,1.08-.17,1.74-.87,1.81-1.96.02-.32.01-.65.01-.97,0-7.63,0-15.26,0-22.89Z"/>
        <path class="cls-4" d="M42.68,52.47c0-.29,0-.59-.01-.88-.07-1.07-.77-1.81-1.82-1.96-.19-.03-.39-.02-.58-.02-4.51,0-9.03,0-13.54,0-.23,0-.46,0-.68.03-1.01.16-1.69.89-1.76,1.91-.02.29-.01.58-.01.88,0,5.42,0,10.85,0,16.27,0,5.55.02,11.11-.02,16.66,0,1.32.73,2.38,2.33,2.38.19,0,.39,0,.58,0,4.22,0,8.44-.03,12.66.02,1.7.02,2.89-.49,2.87-2.84-.05-10.81-.02-21.63-.02-32.44Z"/>
        <path class="cls-2" d="M64.37,55.17c-2.98.08-5.97.02-8.96.02-1.59,0-3.18.01-4.77,0-.82,0-1.5.27-1.86,1-.2.42-.28.93-.28,1.4-.02,4.61-.01,9.22-.01,13.83,0,4.67,0,9.35,0,14.02,0,1.41.71,2.17,2.1,2.29.23.02.45.01.68.01,4.28,0,8.57,0,12.85,0,.32,0,.65,0,.97-.05,1.03-.16,1.63-.75,1.79-1.77.05-.35.05-.71.05-1.07,0-3.44,0-6.88,0-10.32,0-5.58-.02-11.16.01-16.75,0-1.55-.69-2.67-2.59-2.61Z"/>
        <path class="cls-5" d="M16.12,61.63c-4.58-.01-9.16,0-13.74,0-1.64,0-2.37.74-2.37,2.39,0,7.08,0,14.16,0,21.24,0,1.67.75,2.46,2.43,2.47,4.51.02,9.03.02,13.54,0,1.74,0,2.47-.78,2.47-2.53,0-3.51,0-7.02,0-10.52,0-3.57,0-7.15,0-10.72,0-1.58-.75-2.33-2.33-2.34Z"/>
      </g>
    </g>
  </g>
</svg>