<svg width="246" height="135" viewBox="0 0 246 135" fill="none" xmlns="http://www.w3.org/2000/svg">
<path d="M107.86 0V134.976H80.9429V80.9429H0V0H107.86ZM80.9429 27.1163H26.9173V54.0335H80.9508V27.1163H80.9429Z" fill="url(#paint0_linear_1332_210)"/>
<path d="M178.886 0V134.976H151.77V54.0335H124.852V27.1163H151.77V0H178.886Z" fill="url(#paint1_linear_1332_210)"/>
<path d="M212.688 69.3458H196.181V52.8389H212.688V69.3458ZM196.181 102.232H212.688V134.999H196.181V102.232ZM212.688 85.7333H229.068V102.24H212.688V85.7333ZM245.447 52.8468V85.7333H229.068V52.8468H245.447ZM229.068 118.62H245.447V134.999H229.068V118.62Z" fill="url(#paint2_linear_1332_210)"/>
<defs>
<linearGradient id="paint0_linear_1332_210" x1="53.9301" y1="0" x2="53.9301" y2="134.976" gradientUnits="userSpaceOnUse">
<stop stop-color="#14FAF4"/>
<stop offset="1" stop-color="#07E993"/>
</linearGradient>
<linearGradient id="paint1_linear_1332_210" x1="151.869" y1="0" x2="151.869" y2="134.976" gradientUnits="userSpaceOnUse">
<stop stop-color="#14FAF4"/>
<stop offset="1" stop-color="#07E993"/>
</linearGradient>
<linearGradient id="paint2_linear_1332_210" x1="220.814" y1="52.8389" x2="220.814" y2="134.999" gradientUnits="userSpaceOnUse">
<stop stop-color="#14FAF4"/>
<stop offset="1" stop-color="#07E993"/>
</linearGradient>
</defs>
</svg>
