<?xml version="1.0" encoding="UTF-8"?>
<svg id="Layer_2" data-name="Layer 2" xmlns="http://www.w3.org/2000/svg" xmlns:xlink="http://www.w3.org/1999/xlink" viewBox="0 0 311.83 130.18">
  <defs>
    <style>
      .cls-1 {
        fill: url(#linear-gradient);
      }

      .cls-1, .cls-2, .cls-3 {
        stroke-width: 0px;
      }

      .cls-2 {
        fill: url(#linear-gradient-2);
      }

      .cls-3 {
        fill: url(#linear-gradient-3);
      }
    </style>
    <linearGradient id="linear-gradient" x1="50.44" y1="133" x2="50.44" y2="12.48" gradientUnits="userSpaceOnUse">
      <stop offset="0" stop-color="red"/>
      <stop offset=".23" stop-color="#f90000"/>
      <stop offset=".51" stop-color="#e90000"/>
      <stop offset=".84" stop-color="#cf0000"/>
      <stop offset="1" stop-color="#bf0000"/>
    </linearGradient>
    <linearGradient id="linear-gradient-2" x1="166.86" y1="133" x2="166.86" y2="12.48" xlink:href="#linear-gradient"/>
    <linearGradient id="linear-gradient-3" x1="275.52" y1="133" x2="275.52" y2="12.48" xlink:href="#linear-gradient"/>
  </defs>
  <g id="Design">
    <g>
      <g>
        <path class="cls-1" d="M5.75,128.02v-18.88l48.55-45.85c3.83-3.47,6.65-6.59,8.45-9.35,1.8-2.76,3.03-5.27,3.69-7.55.66-2.28.99-4.37.99-6.29,0-5.03-1.71-8.9-5.12-11.6-3.42-2.7-8.42-4.04-15.01-4.04-5.28,0-10.16,1.02-14.65,3.06-4.5,2.04-8.3,5.21-11.42,9.53L0,23.38c4.79-7.19,11.51-12.88,20.14-17.08C28.77,2.1,38.72,0,49.99,0c9.35,0,17.53,1.53,24.54,4.58,7.01,3.06,12.47,7.34,16.36,12.86,3.89,5.51,5.84,12.11,5.84,19.78,0,4.08-.51,8.12-1.53,12.14-1.02,4.02-3.06,8.24-6.11,12.68-3.06,4.44-7.52,9.41-13.4,14.92l-40.28,37.94-5.57-10.61h71.02v23.73H5.75Z"/>
        <path class="cls-2" d="M166.86,130.18c-10.31,0-19.54-2.54-27.69-7.64-8.15-5.09-14.56-12.5-19.24-22.21-4.67-9.71-7.01-21.46-7.01-35.24s2.34-25.53,7.01-35.24c4.67-9.71,11.09-17.11,19.24-22.21,8.15-5.09,17.38-7.64,27.69-7.64s19.69,2.55,27.78,7.64c8.09,5.1,14.47,12.5,19.15,22.21,4.67,9.71,7.01,21.46,7.01,35.24s-2.34,25.53-7.01,35.24c-4.67,9.71-11.06,17.11-19.15,22.21-8.09,5.1-17.35,7.64-27.78,7.64ZM166.86,105.54c4.91,0,9.2-1.38,12.86-4.14,3.66-2.76,6.53-7.13,8.63-13.12,2.1-5.99,3.15-13.72,3.15-23.2s-1.05-17.2-3.15-23.19c-2.1-5.99-4.97-10.37-8.63-13.13-3.66-2.76-7.94-4.13-12.86-4.13s-9.02,1.38-12.68,4.13c-3.66,2.76-6.54,7.13-8.63,13.13-2.1,6-3.15,13.73-3.15,23.19s1.05,17.2,3.15,23.2c2.1,6,4.97,10.37,8.63,13.12,3.66,2.76,7.88,4.14,12.68,4.14Z"/>
      </g>
      <path class="cls-3" d="M254.46,100.7c-2.89,0-5.5-.65-7.83-1.96-2.33-1.3-4.14-3.19-5.45-5.66-1.31-2.47-1.96-5.43-1.96-8.89s.65-6.41,1.96-8.85c1.3-2.44,3.12-4.33,5.45-5.66,2.33-1.33,4.94-2,7.83-2s5.58.67,7.87,2c2.3,1.33,4.11,3.22,5.45,5.66,1.33,2.44,2,5.39,2,8.85s-.67,6.36-2,8.85c-1.33,2.5-3.15,4.4-5.45,5.7-2.3,1.31-4.92,1.96-7.87,1.96ZM249.01,128.02l40.69-59.58h12.26l-40.69,59.58h-12.26ZM254.54,92.61c1.42,0,2.6-.65,3.53-1.96.94-1.3,1.4-3.46,1.4-6.47s-.47-5.16-1.4-6.47c-.94-1.3-2.11-1.96-3.53-1.96s-2.63.65-3.62,1.96c-.99,1.31-1.49,3.46-1.49,6.47s.5,5.16,1.49,6.47c.99,1.31,2.2,1.96,3.62,1.96ZM296.51,128.79c-2.95,0-5.58-.65-7.87-1.96-2.3-1.3-4.1-3.19-5.41-5.66-1.31-2.47-1.96-5.43-1.96-8.89s.65-6.41,1.96-8.85c1.3-2.44,3.11-4.33,5.41-5.66,2.3-1.33,4.92-2,7.87-2s5.58.67,7.87,2c2.3,1.33,4.11,3.22,5.45,5.66,1.33,2.44,2,5.39,2,8.85s-.67,6.43-2,8.89c-1.33,2.47-3.15,4.36-5.45,5.66s-4.92,1.96-7.87,1.96ZM296.51,120.7c1.42,0,2.61-.65,3.57-1.96.96-1.3,1.45-3.46,1.45-6.47s-.48-5.16-1.45-6.47c-.96-1.3-2.16-1.96-3.57-1.96s-2.54.65-3.53,1.96c-.99,1.31-1.49,3.46-1.49,6.47s.5,5.16,1.49,6.47c.99,1.31,2.17,1.96,3.53,1.96Z"/>
    </g>
  </g>
</svg>