<?xml version="1.0" encoding="UTF-8"?>
<svg id="Layer_2" data-name="Layer 2" xmlns="http://www.w3.org/2000/svg" xmlns:xlink="http://www.w3.org/1999/xlink" viewBox="0 0 86.13 87.2">
  <defs>
    <style>
      .cls-1 {
        fill: url(#linear-gradient);
        fill-rule: evenodd;
        stroke-width: 0px;
      }
    </style>
    <linearGradient id="linear-gradient" x1="37.25" y1="85.87" x2="56.51" y2=".09" gradientUnits="userSpaceOnUse">
      <stop offset="0" stop-color="red"/>
      <stop offset="1" stop-color="#464961"/>
    </linearGradient>
  </defs>
  <g id="Design">
    <path class="cls-1" d="M45.31,18.9h1.01l-3.42,6.85,10.97-2.74,10.99-2.74-5.14-10.3L54.58,0l-2.76,6.19c-2.05-.38-4.13-.71-6.51-.71C25.73,5.48,9.24,19.55,5.14,38.45l14.41-1.37c3.77-10.68,14.08-18.18,25.76-18.18h0ZM45.31,74.16h0c-10.63,0-19.91-6.19-24.36-15.45l7.19-.38-7.9-8.54-7.87-7.89-6.18,9.26L0,60.74l6.86-.71c5.82,15.83,20.59,27.17,38.44,27.17,5.14,0,10.28-1.04,14.74-2.74l-7.87-11.34c-2.41.66-4.48,1.04-6.87,1.04h0ZM86.13,46.67h0c0-13.04-5.82-24.37-14.74-31.55l-5.85,12.32c4.81,4.82,7.22,11.67,7.22,19.23,0,4.82-1.04,9.26-3.45,13.36l-4.13-5.48-3.06,11.01-2.76,11.01,11.32.33,11.32.66-4.46-6.19c5.5-6.85,8.58-15.45,8.58-24.7h0Z"/>
  </g>
</svg>