<svg width="87" height="88" viewBox="0 0 87 88" fill="none" xmlns="http://www.w3.org/2000/svg">
<path fill-rule="evenodd" clip-rule="evenodd" d="M45.31 18.9H46.32L42.9 25.75L53.87 23.01L64.86 20.27L59.72 9.97L54.58 0L51.82 6.19C49.77 5.81 47.69 5.48 45.31 5.48C25.73 5.48 9.24 19.55 5.14 38.45L19.55 37.08C23.32 26.4 33.63 18.9 45.31 18.9ZM45.31 74.16C34.68 74.16 25.4 67.97 20.95 58.71L28.14 58.33L20.24 49.79L12.37 41.9L6.19 51.16L0 60.74L6.86 60.03C12.68 75.86 27.45 87.2 45.3 87.2C50.44 87.2 55.58 86.16 60.04 84.46L52.17 73.12C49.76 73.78 47.69 74.16 45.3 74.16H45.31ZM86.13 46.67C86.13 33.63 80.31 22.3 71.39 15.12L65.54 27.44C70.35 32.26 72.76 39.11 72.76 46.67C72.76 51.49 71.72 55.93 69.31 60.03L65.18 54.55L62.12 65.56L59.36 76.57L70.68 76.9L82 77.56L77.54 71.37C83.04 64.52 86.12 55.92 86.12 46.67H86.13Z" fill="#07E993"/>
</svg>
