<svg width="299" height="136" viewBox="0 0 299 136" fill="none" xmlns="http://www.w3.org/2000/svg">
<path d="M108.104 0V81.333H26.9781V108.311H108.104V135.289H0V54.1635H81.1256V27.1855H0V0H108.104Z" fill="url(#paint0_linear_1332_218)"/>
<path d="M233.246 0V135.281H125.142V0H233.246ZM206.268 27.1775H152.112V108.303H206.268V27.1775Z" fill="url(#paint1_linear_1332_218)"/>
<path d="M266.039 69.5032H249.495V52.959H266.039V69.5032ZM249.495 102.464H266.039V135.305H249.495V102.464ZM266.039 85.9277H282.456V102.472H266.039V85.9277ZM298.88 52.967V85.9277H282.464V52.967H298.88ZM282.456 118.888H298.872V135.305H282.456V118.888Z" fill="url(#paint2_linear_1332_218)"/>
<defs>
<linearGradient id="paint0_linear_1332_218" x1="54.0518" y1="0" x2="54.0518" y2="135.289" gradientUnits="userSpaceOnUse">
<stop stop-color="#14FAF4"/>
<stop offset="1" stop-color="#07E993"/>
</linearGradient>
<linearGradient id="paint1_linear_1332_218" x1="179.194" y1="0" x2="179.194" y2="135.281" gradientUnits="userSpaceOnUse">
<stop stop-color="#14FAF4"/>
<stop offset="1" stop-color="#07E993"/>
</linearGradient>
<linearGradient id="paint2_linear_1332_218" x1="274.188" y1="52.959" x2="274.188" y2="135.305" gradientUnits="userSpaceOnUse">
<stop stop-color="#14FAF4"/>
<stop offset="1" stop-color="#07E993"/>
</linearGradient>
</defs>
</svg>
