<svg width="46" height="46" viewBox="0 0 46 46" fill="none" xmlns="http://www.w3.org/2000/svg">
<rect width="46" height="46" rx="10" fill="#CC0000"/>
<path d="M8 23.7707C8 23.1907 8 22.6107 8 22.0207C8.02 21.9307 8.04 21.8307 8.05 21.7407C8.14 20.4007 8.42 19.0907 8.88 17.8307C11.48 10.6607 19.05 6.62067 26.47 8.43067C34.13 10.3007 39.03 17.9607 37.53 25.6907C36.95 28.6507 35.61 31.2207 33.49 33.3607C31.26 35.6107 28.59 37.0207 25.46 37.5607C24.9 37.6607 24.33 37.7107 23.77 37.7907H22.02C21.63 37.7407 21.23 37.7007 20.84 37.6507C17.9 37.2407 15.31 36.0607 13.08 34.1007C10.47 31.7907 8.83 28.9107 8.23 25.4607C8.13 24.9007 8.08 24.3307 8 23.7707ZM12.96 31.4607C13.93 28.0207 16.08 25.6807 19.36 24.3507C15.91 21.8707 15.99 17.4107 18.25 14.9607C20.57 12.4307 24.5 12.1907 27.02 14.4507C28.38 15.6707 29.13 17.2007 29.16 19.0307C29.19 21.2607 28.24 23.0207 26.42 24.3707C28.03 24.9807 29.38 25.8907 30.5 27.1407C31.63 28.3907 32.39 29.8407 32.82 31.4807C36.77 27.1007 37.56 19.3907 32.53 13.9907C27.42 8.48067 19 8.30067 13.67 13.5507C8.38 18.7607 8.74 26.7007 12.96 31.4607ZM23.13 36.0507C23.43 36.0307 23.97 36.0007 24.51 35.9307C27.01 35.6307 29.23 34.6707 31.18 33.0907C31.25 33.0307 31.3 32.8807 31.29 32.7807C31.19 31.9507 30.95 31.1507 30.59 30.3907C29.19 27.3907 26.22 25.4707 22.86 25.4807C21.05 25.4807 19.4 26.0207 17.94 27.0907C16 28.5207 14.84 30.4307 14.49 32.8307C14.48 32.9107 14.54 33.0307 14.61 33.0807C17.02 35.0207 19.78 35.9907 23.12 36.0407L23.13 36.0507ZM22.9 23.6807C25.39 23.6807 27.41 21.6507 27.42 19.1707C27.42 16.6907 25.38 14.6307 22.89 14.6407C20.4 14.6407 18.34 16.7107 18.37 19.1807C18.4 21.6707 20.42 23.6907 22.9 23.6807Z" fill="white"/>
</svg>
