<svg width="14" height="20" viewBox="0 0 14 20" fill="none" xmlns="http://www.w3.org/2000/svg">
<path d="M12.8062 0C8.83891 0 4.87164 0 0.905142 0C0.284145 0 0.000326256 0.328168 0.000326256 1.04587C0.000326256 3.90866 0.000326256 6.77057 0.000326256 9.63336C0.000326256 12.5033 -0.00199378 15.3732 0.00573968 18.2431C0.00573968 18.4494 0.0428603 18.6789 0.128702 18.8559C0.346012 19.3032 0.81698 19.3877 1.23691 19.0862C3.05737 17.7789 4.87705 16.4715 6.69442 15.1589C6.81428 15.0726 6.89471 15.069 7.0169 15.1571C8.82267 16.4635 10.6307 17.7637 12.4419 19.0586C12.5742 19.1538 12.7312 19.2374 12.8827 19.2569C13.3692 19.3174 13.7094 18.8977 13.7094 18.2653C13.7094 12.5255 13.7094 6.78569 13.7094 1.04587C13.7102 0.329946 13.4249 0 12.8062 0Z" fill="#19FDA6"/>
</svg>
