<svg width="15" height="15" viewBox="0 0 15 15" fill="none" xmlns="http://www.w3.org/2000/svg">
<path d="M0.0315769 0.00140515H0.107884C1.54986 0.00140515 2.99316 0.00140515 4.43514 0.00140515C4.47987 0.00140515 4.50881 0.0140515 4.53644 0.0533958C5.77186 1.81967 7.0086 3.58595 8.24533 5.35082C8.26112 5.3733 8.27691 5.39438 8.29664 5.42248C8.3348 5.37892 8.37163 5.33817 8.40716 5.29742C9.24261 4.33349 10.0781 3.36956 10.9122 2.40562C11.5937 1.61874 12.2766 0.83185 12.9581 0.0435597C12.9844 0.0126464 13.0107 0.00140515 13.0489 0.00140515C13.4475 0.00140515 13.8462 0.00140515 14.2461 0.00140515H14.3119C12.4976 2.09508 10.6925 4.17752 8.88475 6.26417C10.9214 9.17283 12.9568 12.0787 15 14.9958C14.9737 14.9972 14.9566 15 14.9395 15C13.4883 15 12.0358 15 10.5846 15C10.5464 15 10.5241 14.9831 10.503 14.9536C9.15183 13.023 7.80063 11.0937 6.44944 9.163C6.44023 9.14895 6.42838 9.1363 6.41391 9.11663C6.37444 9.16159 6.33629 9.20375 6.29945 9.2459C5.46794 10.2056 4.63644 11.1639 3.80493 12.1237C2.98658 13.0679 2.16692 14.0136 1.34725 14.9564C1.32883 14.9775 1.29857 14.9958 1.27357 14.9958C0.865713 14.9986 0.457854 14.9972 0.0486793 14.9972C0.0368382 14.9972 0.0249978 14.9958 0 14.993C1.94588 12.7475 3.88387 10.5119 5.82581 8.27213C3.89571 5.51663 1.96825 2.76393 0.0328919 0L0.0315769 0.00140515ZM13.062 13.9658C13.0475 13.9433 13.0396 13.9279 13.0304 13.9152C12.691 13.4304 12.3516 12.9457 12.0121 12.4609C10.757 10.6679 9.5018 8.87635 8.24664 7.08337C6.84677 5.08384 5.44557 3.08431 4.04701 1.08478C4.02465 1.05386 4.0036 1.03841 3.96544 1.03841C3.32076 1.03841 2.67608 1.03841 2.0314 1.03841C2.0143 1.03841 1.99851 1.04122 1.97351 1.04262C1.99062 1.06792 2.00114 1.08478 2.01166 1.10023C2.16823 1.32506 2.32611 1.54848 2.48268 1.7733C3.63126 3.41452 4.78116 5.05433 5.92974 6.69555C7.61512 9.10258 9.3005 11.5082 10.9859 13.9166C11.0109 13.9518 11.0346 13.9672 11.0767 13.9672C11.7174 13.9658 12.3581 13.9672 12.9989 13.9672H13.0607L13.062 13.9658Z" fill="#07E993"/>
</svg>
