<svg width="30" height="30" viewBox="0 0 30 30" fill="none" xmlns="http://www.w3.org/2000/svg">
<path d="M0.00619492 18.2139H2.92425C2.92425 19.9917 2.92425 21.7235 2.92425 23.4537C2.92425 25.9578 4.01852 27.0664 6.52582 27.0679C12.1304 27.0743 17.735 27.0743 23.3395 27.0679C25.4488 27.0664 26.6461 25.8436 26.6493 23.7122C26.6525 21.8995 26.6493 20.0868 26.6493 18.2202H29.5087C29.5293 18.4359 29.5673 18.6595 29.5673 18.8847C29.5705 20.6213 29.5784 22.3578 29.5626 24.0944C29.534 27.3899 26.9934 29.9685 23.717 29.9812C17.7968 30.0034 11.8766 30.0066 5.95649 29.986C2.54998 29.9733 0.0410847 27.4438 0.00936671 24.0405C-0.00966407 22.1215 0.00619492 20.2026 0.00619492 18.2139Z" fill="#07E993"/>
<path d="M13.0956 5.58395C11.0561 7.62659 9.01506 9.66922 6.9978 11.6912C6.33806 11.0125 5.68784 10.3416 5.08203 9.7168C8.2903 6.51804 11.5747 3.23999 14.8242 0C18.0055 3.18131 21.2883 6.46412 24.5458 9.71997C23.9384 10.3242 23.2723 10.9887 22.584 11.6754C20.6 9.66764 18.5574 7.60121 16.5148 5.5332C16.4434 5.57126 16.3705 5.60932 16.2991 5.64738V21.075H13.3192V5.66324C13.2447 5.63787 13.1717 5.61091 13.0972 5.58554L13.0956 5.58395Z" fill="#07E993"/>
</svg>
