<svg width="20" height="20" viewBox="0 0 20 20" fill="none" xmlns="http://www.w3.org/2000/svg">
<path d="M11.2336 2.63893C11.2336 2.97656 11.2649 3.28909 11.2248 3.59158C11.1834 3.90286 11.1306 4.24049 10.9763 4.50156C10.7165 4.93835 10.1165 5.06637 9.54666 4.89191C9.12995 4.76388 8.79985 4.35973 8.78981 3.87775C8.77098 2.97029 8.75215 2.06031 8.79232 1.1541C8.82872 0.338253 9.35086 -0.0169519 10.1065 0.000620086C11.885 0.0445501 13.5744 0.470043 15.1069 1.39759C17.2633 2.70169 18.7393 4.56055 19.5175 6.95787C20.0974 8.7452 20.1476 10.5626 19.7058 12.3876C19.2338 14.3369 18.2398 15.9811 16.7675 17.3404C15.6303 18.3897 14.335 19.1666 12.8452 19.5946C11.0754 20.103 9.29814 20.1582 7.5058 19.6825C4.9566 19.0072 2.99984 17.535 1.56521 15.3422C0.318854 13.4369 -0.150569 11.317 0.0414678 9.07906C0.243546 6.71689 1.22381 4.66849 2.88687 2.96401C3.42282 2.41551 4.18846 2.37786 4.70056 2.86987C5.20136 3.34934 5.21265 4.13757 4.69051 4.69862C4.06671 5.36761 3.51696 6.07927 3.14418 6.92022C1.76101 10.0355 2.60698 13.7607 5.31181 15.902C6.75899 17.048 8.41954 17.5751 10.2307 17.5124C13.4439 17.4007 15.9504 15.538 16.9758 12.8043C18.0879 9.83842 17.5846 7.11477 15.4057 4.77644C14.3388 3.63175 12.9958 2.9364 11.4482 2.65901C11.408 2.65148 11.3666 2.65274 11.2336 2.64269V2.63893Z" fill="#7D83B5"/>
<path d="M10.9136 9.87731C10.8834 10.3455 10.7667 10.6442 10.4341 10.8174C10.1216 10.9806 9.81154 10.9668 9.51407 10.781C9.41742 10.7208 9.32705 10.648 9.24672 10.5676C8.26771 9.58737 7.28494 8.60836 6.31471 7.6193C5.79634 7.09089 5.85031 6.4106 6.41638 6.07422C6.78539 5.85457 7.18578 5.8847 7.55605 6.24492C8.59405 7.25406 9.61824 8.27825 10.6274 9.315C10.7893 9.48194 10.8495 9.74677 10.9136 9.87605V9.87731Z" fill="#7D83B5"/>
</svg>
