<svg width="24" height="20" viewBox="0 0 24 20" fill="none" xmlns="http://www.w3.org/2000/svg">
<path d="M12.2059 12.0483C12.2102 13.7288 12.1961 15.4103 12.2339 17.0908C12.2436 17.5146 12.1702 17.89 11.8196 18.1564C11.3891 18.4832 10.9165 18.7798 10.4224 19.0258C10.0695 19.2016 9.77822 19.097 9.57754 18.7248C8.4673 16.6712 7.78109 14.4859 6.99778 12.3309C6.94599 12.1896 6.88988 12.0505 6.83486 11.9102C6.78091 11.9156 6.72696 11.9199 6.67302 11.9253C6.61152 13.6112 6.44752 15.3024 6.53383 16.9807C6.57591 17.7832 5.21212 18.9179 4.43636 18.9276C4.07599 18.9319 3.96594 18.7194 3.9066 18.453C3.70591 17.5599 3.58615 16.6421 3.27326 15.7803C2.63991 14.034 1.87278 12.3277 1.21355 10.5879C0.784126 9.45534 0.387074 8.30663 0.0871269 7.14174C-0.332583 5.50874 0.826205 4.50888 2.23099 4.06234C2.41765 4.00301 2.73162 4.03429 2.86541 4.14108C2.96252 4.21873 2.93878 4.54339 2.83197 4.66528C2.44463 5.10966 2.50397 5.57885 2.66581 6.04265C3.15997 7.45885 3.68326 8.86751 4.19683 10.2783C4.20762 10.3096 4.24539 10.3322 4.3166 10.4067C4.33062 10.247 4.34789 10.137 4.35004 10.0281C4.38565 7.74684 4.42233 5.46452 4.45254 3.18328C4.45794 2.75292 4.70394 2.42286 5.0492 2.17155C5.42036 1.9019 5.83144 1.6549 6.26733 1.47909C6.7151 1.29896 6.96649 1.44026 7.00965 1.86091C7.33981 5.05681 8.60972 8.04345 9.58725 11.0959C9.62178 11.2038 9.67788 11.3051 9.79657 11.4044C9.87749 10.5965 9.94546 9.78863 10.0404 8.98291C10.3101 6.68765 10.5766 4.39131 10.8712 2.09713C11.0082 1.03039 11.7969 0.412352 12.8824 0.0574921C13.3668 -0.0999836 13.6042 0.0704354 13.561 0.514819C13.0895 5.36205 14.4091 9.92885 16.3048 14.3996C16.7471 15.4427 17.4042 16.3961 18.4152 17.1037C19.7315 18.0248 21.1859 18.2729 22.7828 17.6905C22.9737 17.6203 23.169 17.5341 23.3686 17.5146C23.5564 17.4974 23.8304 17.5039 23.9254 17.6031C24.0214 17.7056 24.0268 17.9957 23.9297 18.096C23.5316 18.507 23.1507 18.9945 22.6339 19.2415C19.7531 20.621 16.7105 20.14 14.8245 17.6247C13.8113 16.2743 13.2438 14.7524 12.7205 13.2164C12.5867 12.8217 12.4616 12.4258 12.3332 12.03C12.29 12.0364 12.2469 12.0418 12.2037 12.0483H12.2059Z" fill="#7D83B5"/>
</svg>
