<svg width="20" height="20" viewBox="0 0 20 20" fill="none" xmlns="http://www.w3.org/2000/svg">
<path d="M7.1522 9.96923C7.1522 6.78161 7.15649 3.59257 7.14504 0.40495C7.14504 0.0959175 7.21801 -0.00280126 7.53849 6.0152e-05C9.16806 0.0157979 10.7976 0.0157979 12.4272 6.0152e-05C12.7506 -0.00280126 12.8178 0.10021 12.8178 0.406381C12.8092 6.79449 12.8092 13.184 12.8178 19.5721C12.8178 19.8955 12.7434 20.0028 12.4058 19.9985C10.7876 19.9813 9.17092 19.9813 7.55279 19.9985C7.20942 20.0028 7.14361 19.8855 7.14504 19.5693C7.15649 16.3688 7.1522 13.1683 7.1522 9.96923Z" fill="#B3B3B3"/>
<path d="M14.3128 2.90332H19.9383C19.9469 2.99918 19.9627 3.10076 19.9627 3.20377C19.9627 8.67622 19.9627 14.1473 19.9684 19.6197C19.9684 19.8815 19.924 20.0017 19.6193 19.9988C17.9668 19.9845 16.3129 19.9874 14.659 19.996C14.3943 19.996 14.2842 19.9388 14.2842 19.6397C14.2928 14.1444 14.2899 8.64904 14.2913 3.15226C14.2913 3.08216 14.3028 3.01205 14.3114 2.90332H14.3128Z" fill="#B3B3B3"/>
<path d="M0.0314756 8.60693H5.66703C5.66703 8.75287 5.66703 8.8802 5.66703 9.00753C5.66703 12.5271 5.66274 16.048 5.67275 19.5676C5.67275 19.8838 5.60694 20.0025 5.26214 19.9997C3.634 19.9825 2.00442 19.9868 0.374845 19.9968C0.110164 19.9982 0 19.9439 0 19.6448C0.010015 16.0652 0.00572283 12.4856 0.00715354 8.90595C0.00715354 8.81296 0.0200299 8.71996 0.0300449 8.60693H0.0314756Z" fill="#B3B3B3"/>
</svg>
