<?xml version="1.0" encoding="UTF-8"?>
<svg id="Layer_2" data-name="Layer 2" xmlns="http://www.w3.org/2000/svg" viewBox="0 0 36.05 33.76">
  <defs>
    <style>
      .cls-1 {
        fill: #fff;
        stroke-width: 0px;
      }
    </style>
  </defs>
  <g id="Design">
    <path class="cls-1" d="M.08,0h.18C3.73,0,7.19,0,10.66,0c.11,0,.18.03.24.12,2.97,3.98,5.94,7.95,8.91,11.92.04.05.07.1.12.16.09-.1.18-.19.27-.28,2.01-2.17,4.01-4.34,6.02-6.51,1.64-1.77,3.28-3.54,4.92-5.31.06-.07.13-.1.22-.1.96,0,1.92,0,2.88,0h.16c-4.36,4.71-8.7,9.4-13.04,14.09,4.9,6.55,9.79,13.09,14.7,19.65-.06,0-.11.01-.15.01-3.49,0-6.98,0-10.47,0-.09,0-.14-.04-.2-.11-3.25-4.34-6.5-8.69-9.74-13.03-.02-.03-.05-.06-.08-.11-.1.1-.19.2-.27.29-2,2.16-4,4.32-6,6.48-1.97,2.13-3.94,4.25-5.91,6.38-.04.05-.12.09-.18.09-.98,0-1.96,0-2.94,0-.03,0-.06,0-.12,0,4.68-5.05,9.33-10.08,14-15.12C9.36,12.42,4.73,6.22.08,0ZM31.39,31.43c-.03-.05-.05-.08-.08-.11-.82-1.09-1.63-2.18-2.45-3.27-3.02-4.03-6.03-8.07-9.05-12.1-3.37-4.5-6.73-9-10.09-13.5-.05-.07-.1-.1-.2-.1-1.55,0-3.1,0-4.65,0-.04,0-.08,0-.14,0,.04.06.07.09.09.13.38.5.76,1.01,1.13,1.51,2.76,3.69,5.52,7.38,8.28,11.08,4.05,5.42,8.1,10.83,12.15,16.25.06.08.12.11.22.11,1.54,0,3.08,0,4.62,0h.15Z"/>
  </g>
</svg>