<?xml version="1.0" encoding="UTF-8"?>
<svg id="Layer_2" data-name="Layer 2" xmlns="http://www.w3.org/2000/svg" viewBox="0 0 40.24 33.89">
  <defs>
    <style>
      .cls-1 {
        fill: #fff;
        stroke-width: 0px;
      }
    </style>
  </defs>
  <g id="Design">
    <g id="b3W9pD.tif">
      <path class="cls-1" d="M31.97,33.89c-.47-.08-.91-.26-1.33-.49-.26-.15-.49-.35-.73-.53-.6-.45-1.2-.9-1.8-1.35-.9-.68-1.81-1.36-2.71-2.04-.85-.64-1.7-1.28-2.55-1.92-.42-.32-.84-.63-1.26-.95-.07-.05-.11-.05-.17,0-.7.67-1.41,1.34-2.11,2.01-.55.52-1.1,1.05-1.65,1.57-.46.44-.92.89-1.4,1.32-.4.36-.87.5-1.4.29-.36-.14-.59-.42-.78-.74-.04-.08-.06-.15-.05-.24.07-.77.12-1.54.19-2.31.06-.8.13-1.6.2-2.4.07-.8.13-1.6.19-2.41,0-.08.05-.12.1-.17.5-.45.99-.9,1.49-1.35.95-.86,1.9-1.73,2.85-2.59.83-.75,1.65-1.5,2.48-2.25.6-.55,1.2-1.09,1.8-1.64.62-.56,1.24-1.12,1.85-1.68.88-.8,1.76-1.6,2.64-2.4.91-.83,1.83-1.67,2.74-2.5.58-.53,1.16-1.05,1.74-1.58.46-.41.91-.82,1.37-1.24.14-.13.27-.26.34-.45.05-.16-.01-.28-.17-.32-.17-.04-.33-.02-.5.01-.37.08-.7.26-1.02.46-.51.32-1.02.64-1.53.96-.56.35-1.13.7-1.69,1.05-.87.54-1.75,1.08-2.62,1.63-.82.51-1.63,1.02-2.45,1.52-.57.35-1.14.7-1.7,1.06-.76.47-1.52.95-2.28,1.42-.88.55-1.76,1.09-2.64,1.64-1.02.63-2.03,1.27-3.05,1.9-.92.57-1.84,1.14-2.76,1.71-.45.28-.9.56-1.35.84-.05.03-.1.04-.16.02-.96-.31-1.92-.62-2.88-.92-.87-.28-1.74-.55-2.61-.83-.87-.28-1.74-.56-2.61-.84-.25-.08-.5-.16-.75-.24-.36-.11-.68-.28-.94-.57-.32-.35-.35-.82-.1-1.22.24-.38.58-.64.97-.85.37-.19.78-.32,1.16-.47.64-.25,1.29-.5,1.93-.75.99-.38,1.98-.77,2.97-1.15.82-.32,1.64-.64,2.46-.96.78-.3,1.57-.61,2.35-.91.82-.32,1.65-.64,2.47-.96.62-.24,1.25-.48,1.87-.72.63-.24,1.26-.49,1.89-.74.79-.31,1.59-.61,2.38-.92.71-.28,1.43-.55,2.14-.83.75-.29,1.5-.58,2.24-.87.72-.28,1.43-.56,2.15-.84.62-.24,1.25-.48,1.87-.72.71-.28,1.43-.55,2.14-.83.99-.38,1.98-.77,2.97-1.15.79-.31,1.58-.61,2.37-.92.36-.14.72-.29,1.09-.4.43-.12.87-.2,1.32-.15.62.08,1.07.48,1.23,1.09.04.14.06.29.1.43v.9c-.04.26-.08.52-.13.78-.09.44-.18.88-.27,1.32-.16.78-.33,1.56-.49,2.33-.12.59-.25,1.18-.37,1.77-.21,1.01-.42,2.02-.63,3.03-.15.74-.31,1.48-.47,2.22-.16.75-.32,1.5-.48,2.25-.24,1.16-.48,2.32-.73,3.49-.19.93-.39,1.86-.59,2.78-.2.94-.39,1.88-.59,2.81-.16.78-.33,1.56-.49,2.33-.16.78-.33,1.56-.49,2.33-.09.44-.19.88-.28,1.32-.1.49-.2.97-.4,1.43-.17.39-.4.75-.76,1-.19.13-.41.2-.63.25h-.47Z"/>
    </g>
  </g>
</svg>