<?xml version="1.0" encoding="UTF-8"?>
<svg id="Layer_2" data-name="Layer 2" xmlns="http://www.w3.org/2000/svg" xmlns:xlink="http://www.w3.org/1999/xlink" viewBox="0 0 123.54 58.66">
  <defs>
    <style>
      .cls-1 {
        fill: url(#linear-gradient);
      }

      .cls-1, .cls-2, .cls-3, .cls-4, .cls-5 {
        stroke-width: 0px;
      }

      .cls-2 {
        fill: url(#linear-gradient-4);
      }

      .cls-3 {
        fill: url(#linear-gradient-2);
      }

      .cls-4 {
        fill: url(#linear-gradient-3);
      }

      .cls-5 {
        fill: url(#linear-gradient-5);
      }
    </style>
    <linearGradient id="linear-gradient" x1="34.35" y1="50.84" x2="56.84" y2=".14" gradientUnits="userSpaceOnUse">
      <stop offset="0" stop-color="red"/>
      <stop offset="1" stop-color="#464961"/>
    </linearGradient>
    <linearGradient id="linear-gradient-2" x1="4.94" y1="37.79" x2="27.43" y2="-12.9" xlink:href="#linear-gradient"/>
    <linearGradient id="linear-gradient-3" x1="13.45" y1="41.56" x2="35.94" y2="-9.13" xlink:href="#linear-gradient"/>
    <linearGradient id="linear-gradient-4" x1="82.39" y1="72.15" x2="104.88" y2="21.46" xlink:href="#linear-gradient"/>
    <linearGradient id="linear-gradient-5" x1="98.37" y1="79.24" x2="120.86" y2="28.54" xlink:href="#linear-gradient"/>
  </defs>
  <g id="Design">
    <g>
      <path class="cls-1" d="M43.33,13.11l3.45,9.29c.99,2.66,3.09,4.77,5.76,5.76l9.29,3.45c.76.28.76,1.35,0,1.63l-9.29,3.45c-2.66.99-4.77,3.09-5.76,5.76l-3.45,9.29c-.28.76-1.35.76-1.63,0l-3.45-9.29c-.99-2.66-3.09-4.77-5.76-5.76l-9.29-3.45c-.76-.28-.76-1.35,0-1.63l9.29-3.45c2.66-.99,4.77-3.09,5.76-5.76l3.45-9.29c.28-.76,1.35-.76,1.63,0Z"/>
      <path class="cls-3" d="M16,.4l2.46,6.63c.71,1.9,2.21,3.4,4.11,4.11l6.63,2.46c.54.2.54.96,0,1.16l-6.63,2.46c-1.9.71-3.4,2.21-4.11,4.11l-2.46,6.63c-.2.54-.96.54-1.16,0l-2.46-6.63c-.71-1.9-2.21-3.4-4.11-4.11l-6.63-2.46c-.54-.2-.54-.96,0-1.16l6.63-2.46c1.9-.71,3.4-2.21,4.11-4.11L14.83.4c.2-.54.96-.54,1.16,0Z"/>
      <path class="cls-4" d="M10.97,37.88l1.83,4.93c.53,1.41,1.64,2.53,3.05,3.05l4.93,1.83c.4.15.4.72,0,.86l-4.93,1.83c-1.41.53-2.53,1.64-3.05,3.05l-1.83,4.93c-.15.4-.72.4-.86,0l-1.83-4.93c-.53-1.41-1.64-2.53-3.05-3.05l-4.93-1.83c-.4-.15-.4-.72,0-.86l4.93-1.83c1.41-.53,2.53-1.64,3.05-3.05l1.83-4.93c.15-.4.72-.4.86,0Z"/>
      <g>
        <path class="cls-2" d="M105.23,50.46l-2.86-8.22h-17.38l-2.86,8.22h-7.29l14.81-40.82h8.05l14.75,40.82h-7.23ZM87.22,35.94h12.94l-6.47-18.43-6.47,18.43Z"/>
        <path class="cls-5" d="M116.84,9.64h6.71v40.82h-6.71V9.64Z"/>
      </g>
    </g>
  </g>
</svg>