<?xml version="1.0" encoding="UTF-8"?>
<svg id="Layer_2" data-name="Layer 2" xmlns="http://www.w3.org/2000/svg" viewBox="0 0 515.88 426.62">
  <defs>
    <style>
      .cls-1 {
        font-size: 30.13px;
      }

      .cls-1, .cls-2 {
        font-family: Montserrat-SemiBold, 'Montserrat SemiBold';
        font-weight: 600;
      }

      .cls-1, .cls-2, .cls-3 {
        fill: #fff;
      }

      .cls-4 {
        letter-spacing: 0em;
      }

      .cls-5 {
        letter-spacing: 0em;
      }

      .cls-6 {
        letter-spacing: 0em;
      }

      .cls-7 {
        letter-spacing: 0em;
      }

      .cls-8 {
        letter-spacing: 0em;
      }

      .cls-9 {
        letter-spacing: .02em;
      }

      .cls-10 {
        letter-spacing: 0em;
      }

      .cls-11 {
        fill: #161922;
        stroke: #fff;
        stroke-miterlimit: 10;
        stroke-width: .5px;
      }

      .cls-12 {
        letter-spacing: 0em;
      }

      .cls-2 {
        font-size: 19.94px;
      }

      .cls-13 {
        letter-spacing: 0em;
      }

      .cls-14 {
        letter-spacing: 0em;
      }

      .cls-15 {
        letter-spacing: 0em;
      }

      .cls-16 {
        letter-spacing: 0em;
      }

      .cls-17 {
        letter-spacing: 0em;
      }

      .cls-18 {
        letter-spacing: 0em;
      }

      .cls-19 {
        letter-spacing: 0em;
      }

      .cls-3 {
        font-family: Montserrat-Bold, 'Montserrat Bold';
        font-size: 36px;
        font-weight: 700;
      }

      .cls-20 {
        letter-spacing: -.07em;
      }

      .cls-21 {
        letter-spacing: -.06em;
      }
    </style>
  </defs>
  <g id="Design">
    <text class="cls-3" transform="translate(117.05 30.13)"><tspan class="cls-10" x="0" y="0">M</tspan><tspan x="29.16" y="0">eme</tspan><tspan class="cls-7" x="95.25" y="0">c</tspan><tspan x="111.17" y="0">oin </tspan><tspan class="cls-4" x="166.97" y="0">C</tspan><tspan class="cls-17" x="187.74" y="0">r</tspan><tspan x="199.15" y="0">e</tspan><tspan class="cls-13" x="217.19" y="0">a</tspan><tspan class="cls-7" x="234.39" y="0">t</tspan><tspan x="246.09" y="0">or </tspan><tspan x="59.81" y="43.2">Challenges</tspan></text>
    <g>
      <g>
        <rect class="cls-11" x="114.71" y="162.4" width="204.83" height="76.41" rx="9.86" ry="9.86"/>
        <text class="cls-2" transform="translate(161.87 194.53)"><tspan class="cls-21" x="0" y="0">T</tspan><tspan x="8.63" y="0">akes a </tspan><tspan class="cls-5" x="63.55" y="0">t</tspan><tspan class="cls-16" x="70.04" y="0">eam </tspan><tspan class="cls-5" x="-2.82" y="23.93">t</tspan><tspan class="cls-16" x="3.66" y="23.93">o run a </tspan><tspan class="cls-5" x="65.48" y="23.93">t</tspan><tspan class="cls-16" x="71.96" y="23.93">oken</tspan></text>
      </g>
      <g>
        <rect class="cls-11" x=".25" y="256.4" width="228.91" height="76.41" rx="10.2" ry="10.2"/>
        <text class="cls-2" transform="translate(46.05 288.54)"><tspan x="0" y="0">No </tspan><tspan class="cls-12" x="28.3" y="0">w</tspan><tspan class="cls-14" x="42.89" y="0">a</tspan><tspan x="52.35" y="0">y </tspan><tspan class="cls-5" x="65.97" y="0">t</tspan><tspan x="72.45" y="0">o p</tspan><tspan class="cls-19" x="98.97" y="0">r</tspan><tspan x="105.29" y="0">oof </tspan><tspan class="cls-5" x="-.71" y="23.93">t</tspan><tspan class="cls-16" x="5.77" y="23.93">oken le</tspan><tspan class="cls-6" x="66.06" y="23.93">g</tspan><tspan x="77.08" y="23.93">itima</tspan><tspan class="cls-9" x="119.26" y="23.93">c</tspan><tspan x="128.55" y="23.93">y</tspan></text>
      </g>
      <g>
        <rect class="cls-11" x="243.15" y="290.2" width="228.91" height="76.41" rx="8.79" ry="8.79"/>
        <text class="cls-2" transform="translate(285.83 322.33)"><tspan class="cls-20" x="0" y="0">T</tspan><tspan x="8.5" y="0">oken p</tspan><tspan class="cls-18" x="65.43" y="0">r</tspan><tspan x="71.75" y="0">omotion</tspan><tspan x="35.3" y="23.93">difficul</tspan><tspan class="cls-15" x="92.09" y="23.93">t</tspan><tspan x="98.87" y="23.93">y</tspan></text>
      </g>
      <g>
        <rect class="cls-11" x="51.76" y="353.33" width="218.81" height="73.03" rx="9" ry="9"/>
        <text class="cls-1" transform="translate(108.83 398.75)"><tspan x="0" y="0">No </tspan><tspan class="cls-8" x="42.75" y="0">t</tspan><tspan x="52.54" y="0">ools</tspan></text>
      </g>
      <g>
        <rect class="cls-11" x="304.18" y="203.51" width="211.45" height="70.58" rx="8.58" ry="8.58"/>
        <text class="cls-1" transform="translate(363.58 249.8)"><tspan x="0" y="0">Snipers</tspan></text>
      </g>
    </g>
  </g>
</svg>