<svg width="70" height="90" viewBox="0 0 70 90" fill="none" xmlns="http://www.w3.org/2000/svg">
<path d="M49.4537 23.28C49.4537 10.42 34.6437 0 34.6437 0C34.6437 0 19.8337 10.42 19.8337 23.28C19.8337 33.2 28.6537 41.67 32.6837 45.02V89.68H36.6637V44.98C40.7137 41.6 49.4637 33.16 49.4637 23.28H49.4537Z" fill="#07E993"/>
<path d="M68.8437 35.3104C68.8437 35.3104 54.0837 32.7404 46.5737 40.2604C41.3537 45.4804 40.9937 54.2004 41.2637 59.0304V89.6804H45.2437V62.9004C50.1037 63.1604 58.7137 62.7704 63.8937 57.5904C71.4137 50.0704 68.8437 35.3204 68.8437 35.3204V35.3104Z" fill="#07E993"/>
<path d="M22.7036 40.2604C15.1836 32.7404 0.423635 35.3104 0.423635 35.3104C0.423635 35.3104 -2.14637 50.0704 5.37363 57.5804C10.5536 62.7604 19.1736 63.1504 24.0236 62.8904V89.6704H28.0036V59.0204C28.2736 54.1804 27.9136 45.4704 22.6936 40.2504L22.7036 40.2604Z" fill="#07E993"/>
</svg>
