<?xml version="1.0" encoding="UTF-8"?>
<svg id="Layer_2" data-name="Layer 2" xmlns="http://www.w3.org/2000/svg" xmlns:xlink="http://www.w3.org/1999/xlink" viewBox="0 0 825.69 192.42">
  <defs>
    <style>
      .cls-1 {
        fill: url(#linear-gradient);
        stroke-width: 0px;
      }
    </style>
    <linearGradient id="linear-gradient" x1="7.15" y1="-5.26" x2="693.76" y2="164.51" gradientUnits="userSpaceOnUse">
      <stop offset="0" stop-color="red"/>
      <stop offset="1" stop-color="#464961"/>
    </linearGradient>
  </defs>
  <g id="Design">
    <path class="cls-1" d="M21.92,45.36c-3.07,0-5.91-.5-8.55-1.5-2.63-1-4.91-2.43-6.84-4.29-1.93-1.86-3.44-4.03-4.51-6.53-1.08-2.5-1.62-5.24-1.62-8.23s.54-5.73,1.62-8.23c1.08-2.5,2.59-4.67,4.54-6.53,1.95-1.86,4.23-3.28,6.84-4.29s5.47-1.51,8.57-1.51c3.44,0,6.56.6,9.34,1.79,2.78,1.19,5.12,2.94,7.01,5.25l-5.9,5.45c-1.36-1.55-2.88-2.71-4.54-3.49-1.67-.78-3.48-1.16-5.45-1.16-1.86,0-3.56.3-5.11.91-1.55.61-2.9,1.48-4.03,2.61s-2.02,2.48-2.64,4.03c-.62,1.55-.94,3.27-.94,5.17s.31,3.62.94,5.17c.62,1.55,1.5,2.9,2.64,4.03s2.48,2.01,4.03,2.61c1.55.61,3.26.91,5.11.91,1.97,0,3.78-.39,5.45-1.16,1.67-.78,3.18-1.96,4.54-3.55l5.9,5.45c-1.89,2.31-4.23,4.07-7.01,5.28-2.78,1.21-5.91,1.82-9.4,1.82ZM43.89,44.68V14.14h8.46v8.63l-1.19-2.5c.91-2.16,2.37-3.79,4.37-4.91,2.01-1.12,4.45-1.67,7.32-1.67v8.18c-.38-.04-.72-.07-1.02-.09-.3-.02-.62-.03-.97-.03-2.42,0-4.38.69-5.88,2.07-1.5,1.38-2.24,3.53-2.24,6.44v14.42h-8.86ZM83.01,45.14c-3.48,0-6.54-.68-9.17-2.04-2.63-1.36-4.67-3.23-6.1-5.59-1.44-2.37-2.16-5.06-2.16-8.09s.71-5.78,2.13-8.15c1.42-2.36,3.36-4.22,5.82-5.56,2.46-1.34,5.24-2.02,8.35-2.02s5.69.63,8.09,1.9c2.4,1.27,4.31,3.09,5.71,5.45,1.4,2.37,2.1,5.2,2.1,8.49,0,.34-.02.73-.06,1.16-.04.44-.08.84-.11,1.22h-24.81v-5.17h20.16l-3.41,1.53c0-1.59-.32-2.97-.97-4.14-.64-1.17-1.53-2.09-2.67-2.75-1.14-.66-2.46-.99-3.97-.99s-2.85.33-4,.99c-1.16.66-2.05,1.59-2.7,2.78-.64,1.19-.97,2.6-.97,4.23v1.36c0,1.67.37,3.13,1.11,4.4s1.78,2.23,3.12,2.89c1.34.66,2.92.99,4.74.99,1.63,0,3.06-.24,4.29-.74,1.23-.49,2.36-1.23,3.38-2.21l4.71,5.11c-1.4,1.59-3.16,2.81-5.28,3.66-2.12.85-4.56,1.28-7.32,1.28ZM112.25,45.14c-2.38,0-4.43-.41-6.13-1.22-1.7-.81-3.01-1.92-3.92-3.32-.91-1.4-1.36-2.97-1.36-4.71s.44-3.41,1.33-4.77c.89-1.36,2.3-2.43,4.23-3.21,1.93-.78,4.45-1.16,7.55-1.16h8.12v5.17h-7.15c-2.08,0-3.51.34-4.29,1.02-.78.68-1.16,1.53-1.16,2.56,0,1.14.44,2.03,1.33,2.7.89.66,2.11.99,3.66.99s2.8-.35,3.97-1.05c1.17-.7,2.02-1.73,2.56-3.09l1.36,4.09c-.64,1.97-1.82,3.46-3.52,4.49-1.7,1.02-3.9,1.53-6.59,1.53ZM121.56,44.68v-5.96l-.57-1.31v-10.67c0-1.89-.58-3.37-1.73-4.43-1.16-1.06-2.92-1.59-5.31-1.59-1.63,0-3.23.26-4.8.77-1.57.51-2.91,1.2-4,2.07l-3.18-6.19c1.67-1.17,3.67-2.08,6.02-2.72,2.35-.64,4.73-.97,7.15-.97,4.66,0,8.27,1.1,10.84,3.29,2.57,2.2,3.86,5.62,3.86,10.28v17.43h-8.29ZM134.22,21.63v-6.81h21.18v6.81h-21.18ZM150.34,45.14c-3.6,0-6.4-.92-8.4-2.75-2.01-1.84-3.01-4.57-3.01-8.2V7.38h8.86v26.69c0,1.29.34,2.28,1.02,2.98.68.7,1.61,1.05,2.78,1.05,1.4,0,2.59-.38,3.58-1.14l2.38,6.24c-.91.64-2,1.13-3.26,1.45-1.27.32-2.58.48-3.95.48ZM166.98,9.88c-1.63,0-2.95-.47-3.97-1.42-1.02-.94-1.53-2.12-1.53-3.52s.51-2.57,1.53-3.52c1.02-.94,2.35-1.42,3.97-1.42s2.95.44,3.97,1.33c1.02.89,1.53,2.03,1.53,3.43,0,1.48-.5,2.7-1.5,3.66-1,.96-2.34,1.45-4,1.45ZM162.55,44.68V14.14h8.86v30.55h-8.86ZM198.21,13.68c2.42,0,4.59.48,6.5,1.45,1.91.96,3.42,2.44,4.51,4.43,1.1,1.99,1.65,4.53,1.65,7.64v17.49h-8.86v-16.12c0-2.46-.54-4.28-1.62-5.45-1.08-1.17-2.6-1.76-4.57-1.76-1.4,0-2.66.29-3.78.88-1.12.59-1.99,1.49-2.61,2.7-.62,1.21-.94,2.76-.94,4.66v15.1h-8.86V14.14h8.46v8.46l-1.59-2.56c1.1-2.04,2.67-3.61,4.71-4.71s4.37-1.65,6.98-1.65ZM232.1,43.21c-2.84,0-5.4-.61-7.69-1.84-2.29-1.23-4.13-2.95-5.51-5.17-1.38-2.21-2.07-4.8-2.07-7.75s.69-5.59,2.07-7.81c1.38-2.21,3.22-3.93,5.51-5.14,2.29-1.21,4.85-1.82,7.69-1.82,2.57,0,4.84.52,6.81,1.56,1.97,1.04,3.5,2.65,4.6,4.83,1.1,2.18,1.65,4.97,1.65,8.37s-.55,6.14-1.65,8.32c-1.1,2.18-2.63,3.79-4.6,4.85-1.97,1.06-4.24,1.59-6.81,1.59ZM233.46,56.15c-2.88,0-5.65-.35-8.32-1.05-2.67-.7-4.89-1.75-6.67-3.15l3.52-6.36c1.29,1.06,2.92,1.9,4.91,2.53,1.99.62,3.95.94,5.88.94,3.14,0,5.42-.7,6.84-2.1,1.42-1.4,2.13-3.48,2.13-6.24v-4.6l.57-7.66-.11-7.72v-6.59h8.4v25.44c0,5.68-1.48,9.86-4.43,12.55-2.95,2.69-7.19,4.03-12.72,4.03ZM233.86,35.94c1.55,0,2.93-.31,4.14-.94,1.21-.62,2.16-1.51,2.84-2.64s1.02-2.44,1.02-3.92-.34-2.83-1.02-3.95c-.68-1.12-1.63-1.99-2.84-2.61-1.21-.62-2.59-.94-4.14-.94s-2.93.31-4.14.94c-1.21.62-2.17,1.5-2.87,2.61-.7,1.12-1.05,2.43-1.05,3.95s.35,2.78,1.05,3.92c.7,1.14,1.66,2.02,2.87,2.64,1.21.62,2.59.94,4.14.94ZM284.33,45.14c-2.38,0-4.43-.41-6.13-1.22-1.7-.81-3.01-1.92-3.92-3.32-.91-1.4-1.36-2.97-1.36-4.71s.44-3.41,1.33-4.77,2.3-2.43,4.23-3.21c1.93-.78,4.45-1.16,7.55-1.16h8.12v5.17h-7.15c-2.08,0-3.51.34-4.29,1.02-.78.68-1.16,1.53-1.16,2.56,0,1.14.44,2.03,1.34,2.7.89.66,2.11.99,3.66.99s2.8-.35,3.97-1.05c1.17-.7,2.02-1.73,2.56-3.09l1.36,4.09c-.64,1.97-1.82,3.46-3.52,4.49-1.7,1.02-3.9,1.53-6.59,1.53ZM293.65,44.68v-5.96l-.57-1.31v-10.67c0-1.89-.58-3.37-1.73-4.43-1.16-1.06-2.92-1.59-5.31-1.59-1.63,0-3.23.26-4.8.77-1.57.51-2.91,1.2-4,2.07l-3.18-6.19c1.67-1.17,3.67-2.08,6.02-2.72,2.35-.64,4.73-.97,7.15-.97,4.66,0,8.27,1.1,10.84,3.29,2.57,2.2,3.86,5.62,3.86,10.28v17.43h-8.29ZM336.28,45.14c-2.61,0-5.12-.31-7.52-.94-2.4-.62-4.31-1.41-5.71-2.36l2.95-6.36c1.4.87,3.06,1.58,4.97,2.13,1.91.55,3.79.82,5.65.82,2.04,0,3.49-.25,4.34-.74.85-.49,1.28-1.17,1.28-2.04,0-.72-.33-1.26-.99-1.62-.66-.36-1.54-.63-2.64-.82-1.1-.19-2.3-.38-3.61-.57-1.31-.19-2.62-.44-3.95-.77-1.33-.32-2.54-.8-3.63-1.45-1.1-.64-1.98-1.51-2.64-2.61-.66-1.1-.99-2.52-.99-4.26,0-1.93.56-3.63,1.67-5.11,1.12-1.48,2.73-2.64,4.85-3.49,2.12-.85,4.66-1.28,7.61-1.28,2.08,0,4.2.23,6.36.68,2.16.45,3.96,1.12,5.39,1.99l-2.95,6.3c-1.48-.87-2.96-1.47-4.46-1.79-1.5-.32-2.94-.48-4.34-.48-1.97,0-3.41.27-4.31.79-.91.53-1.36,1.21-1.36,2.04,0,.76.33,1.32.99,1.7.66.38,1.54.68,2.64.91,1.1.23,2.3.43,3.61.6,1.31.17,2.62.43,3.95.77,1.32.34,2.53.82,3.61,1.45,1.08.62,1.96,1.48,2.64,2.56.68,1.08,1.02,2.49,1.02,4.23,0,1.89-.57,3.57-1.7,5.02-1.14,1.46-2.77,2.6-4.91,3.44-2.14.83-4.74,1.25-7.81,1.25ZM365.58,45.14c-2.38,0-4.43-.41-6.13-1.22-1.7-.81-3.01-1.92-3.92-3.32-.91-1.4-1.36-2.97-1.36-4.71s.44-3.41,1.33-4.77,2.3-2.43,4.23-3.21c1.93-.78,4.45-1.16,7.55-1.16h8.12v5.17h-7.15c-2.08,0-3.51.34-4.29,1.02-.78.68-1.16,1.53-1.16,2.56,0,1.14.44,2.03,1.34,2.7.89.66,2.11.99,3.66.99s2.8-.35,3.97-1.05c1.17-.7,2.02-1.73,2.56-3.09l1.36,4.09c-.64,1.97-1.82,3.46-3.52,4.49-1.7,1.02-3.9,1.53-6.59,1.53ZM374.89,44.68v-5.96l-.57-1.31v-10.67c0-1.89-.58-3.37-1.73-4.43-1.16-1.06-2.92-1.59-5.31-1.59-1.63,0-3.23.26-4.8.77-1.57.51-2.91,1.2-4,2.07l-3.18-6.19c1.67-1.17,3.67-2.08,6.02-2.72,2.35-.64,4.73-.97,7.15-.97,4.66,0,8.27,1.1,10.84,3.29,2.57,2.2,3.86,5.62,3.86,10.28v17.43h-8.29ZM387.55,21.63v-6.81h21.18v6.81h-21.18ZM392.26,44.68V13.46c0-3.44,1.02-6.2,3.07-8.26,2.04-2.06,4.96-3.09,8.74-3.09,1.29,0,2.53.13,3.72.4,1.19.27,2.2.68,3.04,1.25l-2.33,6.42c-.49-.34-1.04-.61-1.65-.79-.61-.19-1.25-.28-1.93-.28-1.29,0-2.28.37-2.98,1.11-.7.74-1.05,1.85-1.05,3.32v2.84l.23,3.8v24.53h-8.86ZM427.92,45.14c-3.48,0-6.54-.68-9.17-2.04-2.63-1.36-4.67-3.23-6.1-5.59-1.44-2.37-2.16-5.06-2.16-8.09s.71-5.78,2.13-8.15c1.42-2.36,3.36-4.22,5.82-5.56,2.46-1.34,5.24-2.02,8.35-2.02s5.69.63,8.09,1.9c2.4,1.27,4.31,3.09,5.71,5.45,1.4,2.37,2.1,5.2,2.1,8.49,0,.34-.02.73-.06,1.16-.04.44-.08.84-.11,1.22h-24.81v-5.17h20.16l-3.41,1.53c0-1.59-.32-2.97-.97-4.14-.64-1.17-1.53-2.09-2.67-2.75-1.14-.66-2.46-.99-3.97-.99s-2.85.33-4,.99c-1.16.66-2.05,1.59-2.7,2.78s-.96,2.6-.96,4.23v1.36c0,1.67.37,3.13,1.11,4.4s1.78,2.23,3.12,2.89c1.34.66,2.92.99,4.74.99,1.63,0,3.06-.24,4.29-.74,1.23-.49,2.36-1.23,3.38-2.21l4.71,5.11c-1.4,1.59-3.16,2.81-5.28,3.66-2.12.85-4.56,1.28-7.32,1.28ZM448.59,44.68V14.14h8.46v8.63l-1.19-2.5c.91-2.16,2.37-3.79,4.37-4.91,2.01-1.12,4.45-1.67,7.32-1.67v8.18c-.38-.04-.72-.07-1.02-.09-.3-.02-.62-.03-.97-.03-2.42,0-4.38.69-5.88,2.07-1.5,1.38-2.24,3.53-2.24,6.44v14.42h-8.86ZM499.4,45.14c-2.61,0-5.12-.31-7.52-.94-2.4-.62-4.31-1.41-5.71-2.36l2.95-6.36c1.4.87,3.06,1.58,4.97,2.13,1.91.55,3.79.82,5.65.82,2.04,0,3.49-.25,4.34-.74.85-.49,1.28-1.17,1.28-2.04,0-.72-.33-1.26-.99-1.62-.66-.36-1.54-.63-2.64-.82-1.1-.19-2.3-.38-3.61-.57-1.31-.19-2.62-.44-3.95-.77-1.32-.32-2.54-.8-3.63-1.45-1.1-.64-1.98-1.51-2.64-2.61-.66-1.1-.99-2.52-.99-4.26,0-1.93.56-3.63,1.67-5.11,1.12-1.48,2.73-2.64,4.85-3.49,2.12-.85,4.66-1.28,7.61-1.28,2.08,0,4.2.23,6.36.68,2.16.45,3.95,1.12,5.39,1.99l-2.95,6.3c-1.48-.87-2.96-1.47-4.46-1.79-1.5-.32-2.94-.48-4.34-.48-1.97,0-3.41.27-4.32.79-.91.53-1.36,1.21-1.36,2.04,0,.76.33,1.32.99,1.7.66.38,1.54.68,2.64.91,1.1.23,2.3.43,3.61.6,1.31.17,2.62.43,3.95.77,1.32.34,2.53.82,3.61,1.45,1.08.62,1.96,1.48,2.64,2.56s1.02,2.49,1.02,4.23c0,1.89-.57,3.57-1.7,5.02-1.14,1.46-2.77,2.6-4.91,3.44-2.14.83-4.74,1.25-7.81,1.25ZM532.16,45.14c-2.54,0-4.8-.49-6.78-1.48-1.99-.98-3.53-2.49-4.63-4.51-1.1-2.02-1.65-4.61-1.65-7.75V14.14h8.86v15.95c0,2.54.54,4.4,1.62,5.59,1.08,1.19,2.6,1.79,4.57,1.79,1.36,0,2.57-.29,3.63-.88,1.06-.59,1.89-1.49,2.5-2.72.61-1.23.91-2.77.91-4.63v-15.1h8.86v30.55h-8.4v-8.4l1.53,2.44c-1.02,2.12-2.53,3.72-4.51,4.8s-4.15,1.62-6.5,1.62ZM568.55,45.14c-2.61,0-5.12-.31-7.52-.94-2.4-.62-4.31-1.41-5.71-2.36l2.95-6.36c1.4.87,3.06,1.58,4.97,2.13,1.91.55,3.79.82,5.65.82,2.04,0,3.49-.25,4.34-.74.85-.49,1.28-1.17,1.28-2.04,0-.72-.33-1.26-.99-1.62-.66-.36-1.54-.63-2.64-.82-1.1-.19-2.3-.38-3.61-.57-1.31-.19-2.62-.44-3.95-.77-1.32-.32-2.54-.8-3.63-1.45-1.1-.64-1.98-1.51-2.64-2.61-.66-1.1-.99-2.52-.99-4.26,0-1.93.56-3.63,1.67-5.11,1.12-1.48,2.73-2.64,4.85-3.49,2.12-.85,4.66-1.28,7.61-1.28,2.08,0,4.2.23,6.36.68,2.16.45,3.95,1.12,5.39,1.99l-2.95,6.3c-1.48-.87-2.96-1.47-4.46-1.79-1.5-.32-2.94-.48-4.34-.48-1.97,0-3.41.27-4.32.79-.91.53-1.36,1.21-1.36,2.04,0,.76.33,1.32.99,1.7.66.38,1.54.68,2.64.91,1.1.23,2.3.43,3.61.6,1.31.17,2.62.43,3.95.77,1.32.34,2.53.82,3.61,1.45,1.08.62,1.96,1.48,2.64,2.56s1.02,2.49,1.02,4.23c0,1.89-.57,3.57-1.7,5.02-1.14,1.46-2.77,2.6-4.91,3.44-2.14.83-4.74,1.25-7.81,1.25ZM584.79,21.63v-6.81h21.18v6.81h-21.18ZM600.92,45.14c-3.6,0-6.4-.92-8.4-2.75-2.01-1.84-3.01-4.57-3.01-8.2V7.38h8.86v26.69c0,1.29.34,2.28,1.02,2.98.68.7,1.61,1.05,2.78,1.05,1.4,0,2.59-.38,3.58-1.14l2.38,6.24c-.91.64-2,1.13-3.26,1.45-1.27.32-2.58.48-3.95.48ZM622.55,45.14c-2.38,0-4.43-.41-6.13-1.22-1.7-.81-3.01-1.92-3.92-3.32-.91-1.4-1.36-2.97-1.36-4.71s.44-3.41,1.33-4.77c.89-1.36,2.3-2.43,4.23-3.21,1.93-.78,4.45-1.16,7.55-1.16h8.12v5.17h-7.15c-2.08,0-3.51.34-4.29,1.02-.78.68-1.16,1.53-1.16,2.56,0,1.14.44,2.03,1.33,2.7.89.66,2.11.99,3.66.99s2.8-.35,3.97-1.05c1.17-.7,2.02-1.73,2.56-3.09l1.36,4.09c-.64,1.97-1.82,3.46-3.52,4.49-1.7,1.02-3.9,1.53-6.59,1.53ZM631.86,44.68v-5.96l-.57-1.31v-10.67c0-1.89-.58-3.37-1.73-4.43-1.16-1.06-2.92-1.59-5.31-1.59-1.63,0-3.23.26-4.8.77-1.57.51-2.91,1.2-4,2.07l-3.18-6.19c1.66-1.17,3.67-2.08,6.02-2.72,2.35-.64,4.73-.97,7.15-.97,4.66,0,8.27,1.1,10.84,3.29,2.57,2.2,3.86,5.62,3.86,10.28v17.43h-8.29ZM652.58,9.88c-1.63,0-2.95-.47-3.97-1.42-1.02-.94-1.53-2.12-1.53-3.52s.51-2.57,1.53-3.52c1.02-.94,2.35-1.42,3.97-1.42s2.95.44,3.97,1.33,1.53,2.03,1.53,3.43c0,1.48-.5,2.7-1.5,3.66-1,.96-2.34,1.45-4,1.45ZM648.15,44.68V14.14h8.86v30.55h-8.86ZM683.81,13.68c2.42,0,4.59.48,6.5,1.45,1.91.96,3.42,2.44,4.51,4.43,1.1,1.99,1.65,4.53,1.65,7.64v17.49h-8.86v-16.12c0-2.46-.54-4.28-1.62-5.45-1.08-1.17-2.6-1.76-4.57-1.76-1.4,0-2.66.29-3.78.88-1.12.59-1.99,1.49-2.61,2.7-.62,1.21-.94,2.76-.94,4.66v15.1h-8.86V14.14h8.46v8.46l-1.59-2.56c1.1-2.04,2.67-3.61,4.71-4.71,2.04-1.1,4.37-1.65,6.98-1.65ZM713.9,45.14c-2.38,0-4.43-.41-6.13-1.22-1.7-.81-3.01-1.92-3.92-3.32-.91-1.4-1.36-2.97-1.36-4.71s.44-3.41,1.33-4.77,2.3-2.43,4.23-3.21c1.93-.78,4.45-1.16,7.55-1.16h8.12v5.17h-7.15c-2.08,0-3.51.34-4.29,1.02-.78.68-1.16,1.53-1.16,2.56,0,1.14.44,2.03,1.34,2.7.89.66,2.11.99,3.66.99s2.8-.35,3.97-1.05c1.17-.7,2.02-1.73,2.56-3.09l1.36,4.09c-.64,1.97-1.82,3.46-3.52,4.49-1.7,1.02-3.9,1.53-6.59,1.53ZM723.21,44.68v-5.96l-.57-1.31v-10.67c0-1.89-.58-3.37-1.73-4.43-1.16-1.06-2.92-1.59-5.31-1.59-1.63,0-3.23.26-4.8.77-1.57.51-2.91,1.2-4,2.07l-3.18-6.19c1.67-1.17,3.67-2.08,6.02-2.72,2.35-.64,4.73-.97,7.15-.97,4.66,0,8.27,1.1,10.84,3.29,2.57,2.2,3.86,5.62,3.86,10.28v17.43h-8.29ZM739.51,44.68V2.55h8.86v17.77l-.57,9.03.17,9.09v6.24h-8.46ZM757.56,45.14c-2.69,0-5-.57-6.93-1.7-1.93-1.14-3.41-2.87-4.43-5.2-1.02-2.33-1.53-5.27-1.53-8.83s.54-6.55,1.62-8.86,2.58-4.03,4.51-5.17,4.18-1.7,6.76-1.7c2.88,0,5.46.64,7.75,1.93,2.29,1.29,4.11,3.1,5.45,5.45,1.34,2.35,2.02,5.13,2.02,8.35s-.67,5.94-2.02,8.29c-1.34,2.35-3.16,4.17-5.45,5.48-2.29,1.31-4.87,1.96-7.75,1.96ZM756.03,37.87c1.48,0,2.79-.34,3.95-1.02,1.15-.68,2.08-1.66,2.78-2.92.7-1.27,1.05-2.77,1.05-4.51s-.35-3.29-1.05-4.54c-.7-1.25-1.63-2.21-2.78-2.9-1.16-.68-2.47-1.02-3.95-1.02s-2.8.34-3.97,1.02c-1.17.68-2.1,1.65-2.78,2.9-.68,1.25-1.02,2.76-1.02,4.54s.34,3.25,1.02,4.51c.68,1.27,1.61,2.24,2.78,2.92,1.17.68,2.5,1.02,3.97,1.02ZM778.68,44.68V2.55h8.86v42.13h-8.86ZM810.93,45.14c-3.48,0-6.54-.68-9.17-2.04-2.63-1.36-4.66-3.23-6.1-5.59-1.44-2.37-2.16-5.06-2.16-8.09s.71-5.78,2.13-8.15c1.42-2.36,3.36-4.22,5.82-5.56,2.46-1.34,5.24-2.02,8.35-2.02s5.69.63,8.09,1.9c2.4,1.27,4.31,3.09,5.71,5.45,1.4,2.37,2.1,5.2,2.1,8.49,0,.34-.02.73-.06,1.16-.04.44-.08.84-.11,1.22h-24.81v-5.17h20.16l-3.41,1.53c0-1.59-.32-2.97-.97-4.14-.64-1.17-1.53-2.09-2.67-2.75-1.14-.66-2.46-.99-3.97-.99s-2.85.33-4,.99c-1.16.66-2.05,1.59-2.7,2.78-.64,1.19-.97,2.6-.97,4.23v1.36c0,1.67.37,3.13,1.11,4.4s1.78,2.23,3.12,2.89c1.34.66,2.92.99,4.74.99,1.63,0,3.06-.24,4.29-.74,1.23-.49,2.36-1.23,3.38-2.21l4.71,5.11c-1.4,1.59-3.16,2.81-5.28,3.66-2.12.85-4.56,1.28-7.32,1.28ZM17.43,113.27c-3.48,0-6.54-.68-9.17-2.04-2.63-1.36-4.67-3.23-6.1-5.59-1.44-2.36-2.16-5.06-2.16-8.09s.71-5.78,2.13-8.15c1.42-2.37,3.36-4.22,5.82-5.56,2.46-1.34,5.24-2.02,8.35-2.02s5.69.63,8.09,1.9c2.4,1.27,4.31,3.09,5.71,5.45,1.4,2.37,2.1,5.19,2.1,8.49,0,.34-.02.73-.06,1.16-.04.44-.08.84-.11,1.22H7.21v-5.17h20.16l-3.41,1.53c0-1.59-.32-2.97-.97-4.14-.64-1.17-1.53-2.09-2.67-2.75-1.14-.66-2.46-.99-3.97-.99s-2.85.33-4,.99c-1.16.66-2.05,1.59-2.7,2.78-.64,1.19-.97,2.6-.97,4.23v1.36c0,1.67.37,3.13,1.11,4.4.74,1.27,1.78,2.23,3.12,2.9,1.34.66,2.92.99,4.74.99,1.63,0,3.06-.25,4.29-.74,1.23-.49,2.36-1.23,3.38-2.21l4.71,5.11c-1.4,1.59-3.16,2.81-5.28,3.66-2.12.85-4.56,1.28-7.32,1.28ZM56.66,81.81c2.42,0,4.59.48,6.5,1.45,1.91.97,3.42,2.44,4.51,4.43,1.1,1.99,1.65,4.53,1.65,7.64v17.49h-8.86v-16.12c0-2.46-.54-4.28-1.62-5.45-1.08-1.17-2.6-1.76-4.57-1.76-1.4,0-2.66.29-3.78.88-1.12.59-1.99,1.49-2.61,2.7-.62,1.21-.94,2.76-.94,4.66v15.1h-8.86v-30.55h8.46v8.46l-1.59-2.56c1.1-2.04,2.67-3.61,4.71-4.71,2.04-1.1,4.37-1.65,6.98-1.65ZM85.05,112.81l-12.83-30.55h9.14l10.67,26.29h-4.54l11.07-26.29h8.52l-12.89,30.55h-9.14ZM115.14,78.01c-1.63,0-2.95-.47-3.97-1.42-1.02-.95-1.53-2.12-1.53-3.52s.51-2.57,1.53-3.52c1.02-.95,2.35-1.42,3.97-1.42s2.95.45,3.97,1.33c1.02.89,1.53,2.04,1.53,3.44,0,1.48-.5,2.7-1.5,3.66-1,.97-2.34,1.45-4,1.45ZM110.71,112.81v-30.55h8.86v30.55h-8.86ZM127.8,112.81v-30.55h8.46v8.63l-1.19-2.5c.91-2.16,2.37-3.79,4.37-4.91,2.01-1.12,4.45-1.67,7.32-1.67v8.18c-.38-.04-.72-.07-1.02-.09-.3-.02-.62-.03-.97-.03-2.42,0-4.38.69-5.88,2.07-1.5,1.38-2.24,3.53-2.24,6.44v14.42h-8.86ZM166.3,113.27c-3.26,0-6.14-.68-8.66-2.04-2.52-1.36-4.5-3.23-5.96-5.59-1.46-2.36-2.19-5.06-2.19-8.09s.73-5.78,2.19-8.15,3.44-4.22,5.96-5.56c2.52-1.34,5.4-2.02,8.66-2.02s6.09.67,8.63,2.02c2.54,1.34,4.52,3.19,5.96,5.54,1.44,2.35,2.16,5.07,2.16,8.18s-.72,5.73-2.16,8.09c-1.44,2.37-3.43,4.23-5.96,5.59-2.54,1.36-5.41,2.04-8.63,2.04ZM166.3,106c1.48,0,2.8-.34,3.97-1.02,1.17-.68,2.1-1.66,2.78-2.92.68-1.27,1.02-2.77,1.02-4.51s-.34-3.29-1.02-4.54c-.68-1.25-1.61-2.21-2.78-2.9-1.17-.68-2.5-1.02-3.97-1.02s-2.8.34-3.97,1.02c-1.17.68-2.11,1.65-2.81,2.9-.7,1.25-1.05,2.76-1.05,4.54s.35,3.25,1.05,4.51c.7,1.27,1.64,2.24,2.81,2.92,1.17.68,2.5,1.02,3.97,1.02ZM207.52,81.81c2.42,0,4.59.48,6.5,1.45,1.91.97,3.42,2.44,4.51,4.43,1.1,1.99,1.65,4.53,1.65,7.64v17.49h-8.86v-16.12c0-2.46-.54-4.28-1.62-5.45-1.08-1.17-2.6-1.76-4.57-1.76-1.4,0-2.66.29-3.78.88-1.12.59-1.99,1.49-2.61,2.7-.62,1.21-.94,2.76-.94,4.66v15.1h-8.86v-30.55h8.46v8.46l-1.59-2.56c1.1-2.04,2.67-3.61,4.71-4.71,2.04-1.1,4.37-1.65,6.98-1.65ZM267.3,81.81c2.42,0,4.57.48,6.44,1.45,1.87.97,3.35,2.44,4.43,4.43s1.62,4.53,1.62,7.64v17.49h-8.86v-16.12c0-2.46-.51-4.28-1.53-5.45-1.02-1.17-2.46-1.76-4.32-1.76-1.29,0-2.44.29-3.46.88-1.02.59-1.82,1.47-2.38,2.64-.57,1.17-.85,2.67-.85,4.49v15.33h-8.86v-16.12c0-2.46-.5-4.28-1.51-5.45-1-1.17-2.43-1.76-4.29-1.76-1.29,0-2.44.29-3.46.88-1.02.59-1.82,1.47-2.38,2.64s-.85,2.67-.85,4.49v15.33h-8.86v-30.55h8.46v8.35l-1.59-2.44c1.06-2.08,2.56-3.66,4.51-4.74,1.95-1.08,4.17-1.62,6.67-1.62,2.8,0,5.25.71,7.35,2.13,2.1,1.42,3.49,3.59,4.17,6.5l-3.12-.85c1.02-2.39,2.66-4.28,4.91-5.68,2.25-1.4,4.84-2.1,7.75-2.1ZM303.13,113.27c-3.48,0-6.54-.68-9.17-2.04-2.63-1.36-4.67-3.23-6.1-5.59-1.44-2.36-2.16-5.06-2.16-8.09s.71-5.78,2.13-8.15,3.36-4.22,5.82-5.56c2.46-1.34,5.24-2.02,8.35-2.02s5.69.63,8.09,1.9c2.4,1.27,4.31,3.09,5.71,5.45s2.1,5.19,2.1,8.49c0,.34-.02.73-.06,1.16-.04.44-.08.84-.11,1.22h-24.81v-5.17h20.16l-3.41,1.53c0-1.59-.32-2.97-.97-4.14s-1.53-2.09-2.67-2.75c-1.14-.66-2.46-.99-3.97-.99s-2.85.33-4,.99c-1.16.66-2.05,1.59-2.7,2.78s-.96,2.6-.96,4.23v1.36c0,1.67.37,3.13,1.11,4.4.74,1.27,1.78,2.23,3.12,2.9,1.34.66,2.92.99,4.74.99,1.63,0,3.06-.25,4.29-.74,1.23-.49,2.36-1.23,3.38-2.21l4.71,5.11c-1.4,1.59-3.16,2.81-5.28,3.66-2.12.85-4.56,1.28-7.32,1.28ZM342.36,81.81c2.42,0,4.59.48,6.5,1.45,1.91.97,3.42,2.44,4.51,4.43,1.1,1.99,1.65,4.53,1.65,7.64v17.49h-8.86v-16.12c0-2.46-.54-4.28-1.62-5.45-1.08-1.17-2.6-1.76-4.57-1.76-1.4,0-2.66.29-3.78.88-1.12.59-1.99,1.49-2.61,2.7-.62,1.21-.94,2.76-.94,4.66v15.1h-8.86v-30.55h8.46v8.46l-1.59-2.56c1.1-2.04,2.67-3.61,4.71-4.71,2.04-1.1,4.37-1.65,6.98-1.65ZM359.39,89.76v-6.81h21.18v6.81h-21.18ZM375.52,113.27c-3.6,0-6.4-.92-8.4-2.75-2.01-1.84-3.01-4.57-3.01-8.2v-26.8h8.86v26.68c0,1.29.34,2.28,1.02,2.98.68.7,1.61,1.05,2.78,1.05,1.4,0,2.59-.38,3.58-1.14l2.38,6.25c-.91.64-2,1.13-3.26,1.45-1.27.32-2.58.48-3.95.48ZM400.16,89.76v-6.81h21.18v6.81h-21.18ZM404.87,112.81v-31.23c0-3.44,1.02-6.2,3.07-8.26,2.04-2.06,4.96-3.09,8.74-3.09,1.29,0,2.53.13,3.72.4,1.19.26,2.2.68,3.04,1.25l-2.33,6.42c-.49-.34-1.04-.6-1.65-.79-.61-.19-1.25-.28-1.93-.28-1.29,0-2.28.37-2.98,1.11-.7.74-1.05,1.84-1.05,3.32v2.84l.23,3.8v24.53h-8.86ZM439.9,113.27c-3.26,0-6.14-.68-8.66-2.04-2.52-1.36-4.5-3.23-5.96-5.59-1.46-2.36-2.19-5.06-2.19-8.09s.73-5.78,2.19-8.15c1.46-2.37,3.44-4.22,5.96-5.56,2.52-1.34,5.4-2.02,8.66-2.02s6.09.67,8.63,2.02c2.54,1.34,4.52,3.19,5.96,5.54,1.44,2.35,2.16,5.07,2.16,8.18s-.72,5.73-2.16,8.09c-1.44,2.37-3.43,4.23-5.96,5.59-2.54,1.36-5.41,2.04-8.63,2.04ZM439.9,106c1.48,0,2.8-.34,3.97-1.02s2.1-1.66,2.78-2.92c.68-1.27,1.02-2.77,1.02-4.51s-.34-3.29-1.02-4.54c-.68-1.25-1.61-2.21-2.78-2.9s-2.5-1.02-3.97-1.02-2.8.34-3.97,1.02c-1.17.68-2.11,1.65-2.81,2.9-.7,1.25-1.05,2.76-1.05,4.54s.35,3.25,1.05,4.51c.7,1.27,1.64,2.24,2.81,2.92,1.17.68,2.5,1.02,3.97,1.02ZM462.56,112.81v-30.55h8.46v8.63l-1.19-2.5c.91-2.16,2.36-3.79,4.37-4.91,2.01-1.12,4.45-1.67,7.32-1.67v8.18c-.38-.04-.72-.07-1.02-.09-.3-.02-.62-.03-.96-.03-2.42,0-4.38.69-5.88,2.07-1.49,1.38-2.24,3.53-2.24,6.44v14.42h-8.86ZM542.21,81.81c2.42,0,4.57.48,6.44,1.45,1.87.97,3.35,2.44,4.43,4.43,1.08,1.99,1.62,4.53,1.62,7.64v17.49h-8.86v-16.12c0-2.46-.51-4.28-1.53-5.45-1.02-1.17-2.46-1.76-4.32-1.76-1.29,0-2.44.29-3.46.88-1.02.59-1.82,1.47-2.39,2.64-.57,1.17-.85,2.67-.85,4.49v15.33h-8.86v-16.12c0-2.46-.5-4.28-1.5-5.45-1-1.17-2.43-1.76-4.29-1.76-1.29,0-2.44.29-3.46.88-1.02.59-1.82,1.47-2.39,2.64-.57,1.17-.85,2.67-.85,4.49v15.33h-8.86v-30.55h8.46v8.35l-1.59-2.44c1.06-2.08,2.56-3.66,4.51-4.74,1.95-1.08,4.17-1.62,6.67-1.62,2.8,0,5.25.71,7.35,2.13,2.1,1.42,3.49,3.59,4.17,6.5l-3.12-.85c1.02-2.39,2.66-4.28,4.91-5.68,2.25-1.4,4.83-2.1,7.75-2.1ZM578.04,113.27c-3.48,0-6.54-.68-9.17-2.04-2.63-1.36-4.67-3.23-6.1-5.59-1.44-2.36-2.16-5.06-2.16-8.09s.71-5.78,2.13-8.15,3.36-4.22,5.82-5.56c2.46-1.34,5.24-2.02,8.35-2.02s5.69.63,8.09,1.9c2.4,1.27,4.31,3.09,5.71,5.45,1.4,2.37,2.1,5.19,2.1,8.49,0,.34-.02.73-.06,1.16-.04.44-.08.84-.11,1.22h-24.81v-5.17h20.16l-3.41,1.53c0-1.59-.32-2.97-.97-4.14s-1.53-2.09-2.67-2.75c-1.14-.66-2.46-.99-3.97-.99s-2.85.33-4,.99c-1.16.66-2.05,1.59-2.7,2.78s-.96,2.6-.96,4.23v1.36c0,1.67.37,3.13,1.11,4.4.74,1.27,1.78,2.23,3.12,2.9,1.34.66,2.92.99,4.74.99,1.63,0,3.06-.25,4.29-.74,1.23-.49,2.36-1.23,3.38-2.21l4.71,5.11c-1.4,1.59-3.16,2.81-5.28,3.66-2.12.85-4.56,1.28-7.32,1.28ZM637.82,81.81c2.42,0,4.57.48,6.44,1.45,1.87.97,3.35,2.44,4.43,4.43,1.08,1.99,1.62,4.53,1.62,7.64v17.49h-8.86v-16.12c0-2.46-.51-4.28-1.53-5.45-1.02-1.17-2.46-1.76-4.32-1.76-1.29,0-2.44.29-3.46.88-1.02.59-1.82,1.47-2.38,2.64-.57,1.17-.85,2.67-.85,4.49v15.33h-8.86v-16.12c0-2.46-.5-4.28-1.51-5.45-1-1.17-2.43-1.76-4.29-1.76-1.29,0-2.44.29-3.46.88-1.02.59-1.82,1.47-2.38,2.64-.57,1.17-.85,2.67-.85,4.49v15.33h-8.86v-30.55h8.46v8.35l-1.59-2.44c1.06-2.08,2.56-3.66,4.51-4.74,1.95-1.08,4.17-1.62,6.67-1.62,2.8,0,5.25.71,7.35,2.13,2.1,1.42,3.49,3.59,4.17,6.5l-3.12-.85c1.02-2.39,2.66-4.28,4.91-5.68,2.25-1.4,4.84-2.1,7.75-2.1ZM673.65,113.27c-3.48,0-6.54-.68-9.17-2.04-2.63-1.36-4.67-3.23-6.1-5.59-1.44-2.36-2.16-5.06-2.16-8.09s.71-5.78,2.13-8.15,3.36-4.22,5.82-5.56c2.46-1.34,5.24-2.02,8.35-2.02s5.69.63,8.09,1.9c2.4,1.27,4.31,3.09,5.71,5.45s2.1,5.19,2.1,8.49c0,.34-.02.73-.06,1.16-.04.44-.08.84-.11,1.22h-24.81v-5.17h20.16l-3.41,1.53c0-1.59-.32-2.97-.97-4.14-.64-1.17-1.53-2.09-2.67-2.75-1.14-.66-2.46-.99-3.97-.99s-2.85.33-4,.99c-1.16.66-2.05,1.59-2.7,2.78s-.96,2.6-.96,4.23v1.36c0,1.67.37,3.13,1.11,4.4.74,1.27,1.78,2.23,3.12,2.9,1.34.66,2.92.99,4.74.99,1.63,0,3.06-.25,4.29-.74,1.23-.49,2.36-1.23,3.38-2.21l4.71,5.11c-1.4,1.59-3.16,2.81-5.28,3.66-2.12.85-4.56,1.28-7.32,1.28ZM709.08,113.27c-3.29,0-6.23-.67-8.8-2.02-2.57-1.34-4.59-3.21-6.05-5.59-1.46-2.39-2.19-5.09-2.19-8.12s.73-5.78,2.19-8.15c1.46-2.37,3.47-4.22,6.05-5.56,2.57-1.34,5.51-2.02,8.8-2.02s6.02.67,8.4,2.02c2.39,1.34,4.14,3.26,5.28,5.76l-6.87,3.69c-.79-1.44-1.79-2.5-2.98-3.18-1.19-.68-2.49-1.02-3.89-1.02-1.51,0-2.88.34-4.09,1.02-1.21.68-2.17,1.65-2.87,2.9-.7,1.25-1.05,2.76-1.05,4.54s.35,3.29,1.05,4.54c.7,1.25,1.66,2.21,2.87,2.9,1.21.68,2.57,1.02,4.09,1.02,1.4,0,2.7-.33,3.89-.99,1.19-.66,2.19-1.73,2.98-3.21l6.87,3.75c-1.14,2.46-2.89,4.36-5.28,5.71-2.38,1.34-5.19,2.02-8.4,2.02ZM742.01,113.27c-3.26,0-6.14-.68-8.66-2.04-2.52-1.36-4.5-3.23-5.96-5.59-1.46-2.36-2.19-5.06-2.19-8.09s.73-5.78,2.19-8.15c1.46-2.37,3.44-4.22,5.96-5.56,2.52-1.34,5.4-2.02,8.66-2.02s6.09.67,8.63,2.02c2.54,1.34,4.52,3.19,5.96,5.54,1.44,2.35,2.16,5.07,2.16,8.18s-.72,5.73-2.16,8.09c-1.44,2.37-3.43,4.23-5.96,5.59-2.54,1.36-5.41,2.04-8.63,2.04ZM742.01,106c1.48,0,2.8-.34,3.97-1.02,1.17-.68,2.1-1.66,2.78-2.92.68-1.27,1.02-2.77,1.02-4.51s-.34-3.29-1.02-4.54c-.68-1.25-1.61-2.21-2.78-2.9s-2.5-1.02-3.97-1.02-2.8.34-3.97,1.02c-1.17.68-2.11,1.65-2.81,2.9-.7,1.25-1.05,2.76-1.05,4.54s.35,3.25,1.05,4.51c.7,1.27,1.64,2.24,2.81,2.92,1.17.68,2.5,1.02,3.97,1.02ZM769.09,78.01c-1.63,0-2.95-.47-3.97-1.42s-1.53-2.12-1.53-3.52.51-2.57,1.53-3.52,2.35-1.42,3.97-1.42,2.95.45,3.97,1.33c1.02.89,1.53,2.04,1.53,3.44,0,1.48-.5,2.7-1.51,3.66-1,.97-2.34,1.45-4,1.45ZM764.66,112.81v-30.55h8.86v30.55h-8.86ZM800.32,81.81c2.42,0,4.59.48,6.5,1.45,1.91.97,3.41,2.44,4.51,4.43,1.1,1.99,1.65,4.53,1.65,7.64v17.49h-8.86v-16.12c0-2.46-.54-4.28-1.62-5.45-1.08-1.17-2.6-1.76-4.57-1.76-1.4,0-2.66.29-3.77.88-1.12.59-1.99,1.49-2.61,2.7-.62,1.21-.94,2.76-.94,4.66v15.1h-8.86v-30.55h8.46v8.46l-1.59-2.56c1.1-2.04,2.67-3.61,4.71-4.71,2.04-1.1,4.37-1.65,6.98-1.65ZM15.39,181.4c-2.88,0-5.47-.65-7.78-1.96-2.31-1.31-4.14-3.13-5.48-5.48-1.34-2.35-2.02-5.11-2.02-8.29s.67-6,2.02-8.35c1.34-2.35,3.17-4.16,5.48-5.45,2.31-1.29,4.9-1.93,7.78-1.93,2.57,0,4.83.57,6.76,1.7,1.93,1.14,3.43,2.86,4.49,5.17,1.06,2.31,1.59,5.26,1.59,8.86s-.51,6.5-1.53,8.83c-1.02,2.33-2.49,4.06-4.4,5.2-1.91,1.14-4.21,1.7-6.9,1.7ZM16.92,174.13c1.44,0,2.74-.34,3.92-1.02,1.17-.68,2.11-1.66,2.81-2.92.7-1.27,1.05-2.77,1.05-4.51s-.35-3.29-1.05-4.54c-.7-1.25-1.64-2.21-2.81-2.9-1.17-.68-2.48-1.02-3.92-1.02s-2.8.34-3.97,1.02c-1.17.68-2.11,1.65-2.81,2.9-.7,1.25-1.05,2.76-1.05,4.54s.35,3.25,1.05,4.51c.7,1.27,1.64,2.24,2.81,2.92,1.17.68,2.5,1.02,3.97,1.02ZM24.92,180.95v-6.24l.17-9.09-.57-9.03v-17.77h8.86v42.13h-8.46ZM56.72,181.4c-3.48,0-6.54-.68-9.17-2.04-2.63-1.36-4.67-3.23-6.1-5.59-1.44-2.37-2.16-5.06-2.16-8.09s.71-5.78,2.13-8.15c1.42-2.36,3.36-4.22,5.82-5.56,2.46-1.34,5.24-2.02,8.35-2.02s5.69.63,8.09,1.9c2.4,1.27,4.31,3.09,5.71,5.45,1.4,2.37,2.1,5.2,2.1,8.49,0,.34-.02.73-.06,1.16-.04.44-.08.84-.11,1.22h-24.81v-5.17h20.16l-3.41,1.53c0-1.59-.32-2.97-.97-4.14-.64-1.17-1.53-2.09-2.67-2.75-1.14-.66-2.46-.99-3.97-.99s-2.85.33-4,.99c-1.16.66-2.05,1.59-2.7,2.78-.64,1.19-.97,2.6-.97,4.23v1.36c0,1.67.37,3.13,1.11,4.4s1.78,2.23,3.12,2.89c1.34.66,2.92.99,4.74.99,1.63,0,3.06-.24,4.29-.74,1.23-.49,2.36-1.23,3.38-2.21l4.71,5.11c-1.4,1.59-3.16,2.81-5.28,3.66-2.12.85-4.56,1.28-7.32,1.28ZM90.39,179.47c-2.84,0-5.4-.61-7.69-1.84-2.29-1.23-4.13-2.95-5.51-5.17-1.38-2.21-2.07-4.8-2.07-7.75s.69-5.59,2.07-7.81c1.38-2.21,3.22-3.93,5.51-5.14,2.29-1.21,4.85-1.82,7.69-1.82,2.57,0,4.84.52,6.81,1.56,1.97,1.04,3.5,2.65,4.6,4.83,1.1,2.18,1.65,4.97,1.65,8.37s-.55,6.14-1.65,8.32c-1.1,2.18-2.63,3.79-4.6,4.85-1.97,1.06-4.24,1.59-6.81,1.59ZM91.75,192.42c-2.88,0-5.65-.35-8.32-1.05-2.67-.7-4.89-1.75-6.67-3.15l3.52-6.36c1.29,1.06,2.92,1.9,4.91,2.53,1.99.62,3.95.94,5.88.94,3.14,0,5.42-.7,6.84-2.1,1.42-1.4,2.13-3.48,2.13-6.24v-4.6l.57-7.66-.11-7.72v-6.59h8.4v25.44c0,5.68-1.48,9.86-4.43,12.55-2.95,2.69-7.19,4.03-12.72,4.03ZM92.15,172.2c1.55,0,2.93-.31,4.14-.94,1.21-.62,2.16-1.51,2.84-2.64.68-1.14,1.02-2.44,1.02-3.92s-.34-2.83-1.02-3.95c-.68-1.12-1.63-1.99-2.84-2.61-1.21-.62-2.59-.94-4.14-.94s-2.93.31-4.14.94c-1.21.62-2.17,1.5-2.87,2.61-.7,1.12-1.05,2.43-1.05,3.95s.35,2.78,1.05,3.92c.7,1.14,1.66,2.02,2.87,2.64,1.21.62,2.59.94,4.14.94ZM132.29,181.4c-3.48,0-6.54-.68-9.17-2.04-2.63-1.36-4.67-3.23-6.1-5.59-1.44-2.37-2.16-5.06-2.16-8.09s.71-5.78,2.13-8.15c1.42-2.36,3.36-4.22,5.82-5.56,2.46-1.34,5.24-2.02,8.35-2.02s5.69.63,8.09,1.9c2.4,1.27,4.31,3.09,5.71,5.45,1.4,2.37,2.1,5.2,2.1,8.49,0,.34-.02.73-.06,1.16-.04.44-.08.84-.11,1.22h-24.81v-5.17h20.16l-3.41,1.53c0-1.59-.32-2.97-.97-4.14-.64-1.17-1.53-2.09-2.67-2.75-1.14-.66-2.46-.99-3.97-.99s-2.85.33-4,.99c-1.16.66-2.05,1.59-2.7,2.78-.64,1.19-.97,2.6-.97,4.23v1.36c0,1.67.37,3.13,1.11,4.4s1.78,2.23,3.12,2.89c1.34.66,2.92.99,4.74.99,1.63,0,3.06-.24,4.29-.74,1.23-.49,2.36-1.23,3.38-2.21l4.71,5.11c-1.4,1.59-3.16,2.81-5.28,3.66-2.12.85-4.56,1.28-7.32,1.28ZM171.52,149.95c2.42,0,4.59.48,6.5,1.45,1.91.96,3.42,2.44,4.51,4.43,1.1,1.99,1.65,4.53,1.65,7.64v17.49h-8.86v-16.12c0-2.46-.54-4.28-1.62-5.45-1.08-1.17-2.6-1.76-4.57-1.76-1.4,0-2.66.29-3.78.88-1.12.59-1.99,1.49-2.61,2.7-.62,1.21-.94,2.76-.94,4.66v15.1h-8.86v-30.55h8.46v8.46l-1.59-2.56c1.1-2.04,2.67-3.61,4.71-4.71s4.37-1.65,6.98-1.65ZM202.46,181.4c-2.61,0-5.12-.31-7.52-.94-2.4-.62-4.31-1.41-5.71-2.36l2.95-6.36c1.4.87,3.06,1.58,4.97,2.13,1.91.55,3.79.82,5.65.82,2.04,0,3.49-.25,4.34-.74s1.28-1.17,1.28-2.04c0-.72-.33-1.26-.99-1.62-.66-.36-1.54-.63-2.64-.82-1.1-.19-2.3-.38-3.61-.57-1.31-.19-2.62-.44-3.95-.77-1.33-.32-2.54-.8-3.63-1.45-1.1-.64-1.98-1.51-2.64-2.61-.66-1.1-.99-2.52-.99-4.26,0-1.93.56-3.63,1.67-5.11,1.12-1.48,2.73-2.64,4.85-3.49,2.12-.85,4.66-1.28,7.61-1.28,2.08,0,4.2.23,6.36.68,2.16.45,3.95,1.12,5.39,1.99l-2.95,6.3c-1.48-.87-2.96-1.47-4.46-1.79-1.5-.32-2.94-.48-4.34-.48-1.97,0-3.41.27-4.31.79-.91.53-1.36,1.21-1.36,2.04,0,.76.33,1.32.99,1.7.66.38,1.54.68,2.64.91,1.1.23,2.3.43,3.61.6,1.31.17,2.62.43,3.95.77,1.32.34,2.53.82,3.61,1.45,1.08.62,1.96,1.48,2.64,2.56.68,1.08,1.02,2.49,1.02,4.23,0,1.89-.57,3.57-1.7,5.02-1.14,1.46-2.77,2.6-4.91,3.44-2.14.83-4.74,1.25-7.81,1.25ZM251.52,181.63c-2.92,0-5.51-.47-7.78-1.42-2.27-.94-4.07-2.23-5.39-3.86-1.33-1.63-1.99-3.5-1.99-5.62,0-1.97.43-3.74,1.31-5.31.87-1.57,2.25-3.05,4.14-4.43,1.89-1.38,4.29-2.73,7.21-4.06,2.12-.98,3.78-1.85,5-2.61,1.21-.76,2.06-1.49,2.56-2.19s.74-1.41.74-2.13c0-.98-.33-1.78-.99-2.38-.66-.61-1.64-.91-2.92-.91-1.36,0-2.42.34-3.18,1.02-.76.68-1.14,1.55-1.14,2.61,0,.57.11,1.13.34,1.67.23.55.66,1.17,1.31,1.87.64.7,1.55,1.6,2.72,2.7l20.95,19.42-4.83,5.62-23.11-21.46c-1.32-1.21-2.38-2.35-3.18-3.41-.79-1.06-1.37-2.1-1.73-3.12-.36-1.02-.54-2.08-.54-3.18,0-1.93.51-3.63,1.53-5.11s2.46-2.62,4.31-3.44c1.85-.81,4.03-1.22,6.53-1.22,2.31,0,4.31.37,5.99,1.11,1.68.74,3.01,1.79,3.97,3.15s1.45,2.99,1.45,4.88c0,1.67-.42,3.19-1.25,4.57-.83,1.38-2.13,2.68-3.89,3.89s-4.06,2.44-6.9,3.69c-1.93.87-3.45,1.71-4.57,2.53-1.12.81-1.92,1.64-2.41,2.47s-.74,1.76-.74,2.78c0,.95.29,1.8.88,2.56.59.76,1.41,1.34,2.47,1.76,1.06.42,2.31.62,3.75.62,2.31,0,4.43-.54,6.36-1.62,1.93-1.08,3.57-2.69,4.91-4.83s2.3-4.74,2.87-7.81l7.1,2.21c-.79,3.86-2.21,7.21-4.26,10.05-2.04,2.84-4.56,5.04-7.55,6.59-2.99,1.55-6.34,2.33-10.05,2.33ZM310.56,181.4c-3.29,0-6.23-.67-8.8-2.01-2.57-1.34-4.59-3.21-6.05-5.59-1.46-2.38-2.19-5.09-2.19-8.12s.73-5.78,2.19-8.15c1.46-2.36,3.47-4.22,6.05-5.56,2.57-1.34,5.51-2.02,8.8-2.02s6.02.67,8.4,2.02c2.38,1.34,4.14,3.26,5.28,5.76l-6.87,3.69c-.79-1.44-1.79-2.5-2.98-3.18-1.19-.68-2.49-1.02-3.89-1.02-1.51,0-2.88.34-4.09,1.02-1.21.68-2.17,1.65-2.87,2.9-.7,1.25-1.05,2.76-1.05,4.54s.35,3.29,1.05,4.54c.7,1.25,1.66,2.21,2.87,2.89,1.21.68,2.57,1.02,4.09,1.02,1.4,0,2.7-.33,3.89-.99,1.19-.66,2.19-1.73,2.98-3.21l6.87,3.75c-1.14,2.46-2.9,4.36-5.28,5.71-2.39,1.34-5.19,2.01-8.4,2.01ZM329.36,180.95v-30.55h8.46v8.63l-1.19-2.5c.91-2.16,2.37-3.79,4.37-4.91,2.01-1.12,4.45-1.67,7.32-1.67v8.18c-.38-.04-.72-.07-1.02-.09-.3-.02-.62-.03-.97-.03-2.42,0-4.38.69-5.88,2.07-1.5,1.38-2.24,3.53-2.24,6.44v14.42h-8.86ZM368.48,181.4c-3.48,0-6.54-.68-9.17-2.04-2.63-1.36-4.67-3.23-6.1-5.59-1.44-2.37-2.16-5.06-2.16-8.09s.71-5.78,2.13-8.15c1.42-2.36,3.36-4.22,5.82-5.56,2.46-1.34,5.24-2.02,8.35-2.02s5.69.63,8.09,1.9,4.31,3.09,5.71,5.45c1.4,2.37,2.1,5.2,2.1,8.49,0,.34-.02.73-.06,1.16-.04.44-.08.84-.11,1.22h-24.81v-5.17h20.16l-3.41,1.53c0-1.59-.32-2.97-.97-4.14-.64-1.17-1.53-2.09-2.67-2.75-1.14-.66-2.46-.99-3.97-.99s-2.85.33-4,.99c-1.16.66-2.05,1.59-2.7,2.78s-.96,2.6-.96,4.23v1.36c0,1.67.37,3.13,1.11,4.4s1.78,2.23,3.12,2.89c1.34.66,2.92.99,4.74.99,1.63,0,3.06-.24,4.29-.74,1.23-.49,2.36-1.23,3.38-2.21l4.71,5.11c-1.4,1.59-3.16,2.81-5.28,3.66-2.12.85-4.56,1.28-7.32,1.28ZM397.72,181.4c-2.38,0-4.43-.41-6.13-1.22-1.7-.81-3.01-1.92-3.92-3.32-.91-1.4-1.36-2.97-1.36-4.71s.44-3.41,1.33-4.77,2.3-2.43,4.23-3.21c1.93-.78,4.45-1.16,7.55-1.16h8.12v5.17h-7.15c-2.08,0-3.51.34-4.29,1.02-.78.68-1.16,1.53-1.16,2.56,0,1.14.44,2.03,1.34,2.7.89.66,2.11.99,3.66.99s2.8-.35,3.97-1.05c1.17-.7,2.02-1.73,2.56-3.09l1.36,4.09c-.64,1.97-1.82,3.46-3.52,4.49-1.7,1.02-3.9,1.53-6.59,1.53ZM407.03,180.95v-5.96l-.57-1.31v-10.67c0-1.89-.58-3.37-1.73-4.43-1.16-1.06-2.92-1.59-5.31-1.59-1.63,0-3.23.26-4.8.77-1.57.51-2.91,1.2-4,2.07l-3.18-6.19c1.67-1.17,3.67-2.08,6.02-2.72,2.35-.64,4.73-.97,7.15-.97,4.66,0,8.27,1.1,10.84,3.29,2.57,2.2,3.86,5.62,3.86,10.28v17.43h-8.29ZM419.69,157.9v-6.81h21.18v6.81h-21.18ZM435.81,181.4c-3.6,0-6.4-.92-8.4-2.75-2.01-1.84-3.01-4.57-3.01-8.2v-26.8h8.86v26.69c0,1.29.34,2.28,1.02,2.98.68.7,1.61,1.05,2.78,1.05,1.4,0,2.59-.38,3.58-1.14l2.38,6.24c-.91.64-2,1.13-3.26,1.45-1.27.32-2.58.48-3.95.48ZM461.59,181.4c-3.26,0-6.14-.68-8.66-2.04-2.52-1.36-4.5-3.23-5.96-5.59-1.46-2.37-2.19-5.06-2.19-8.09s.73-5.78,2.19-8.15c1.46-2.36,3.44-4.22,5.96-5.56,2.52-1.34,5.4-2.02,8.66-2.02s6.09.67,8.63,2.02c2.54,1.34,4.52,3.19,5.96,5.54,1.44,2.35,2.16,5.07,2.16,8.18s-.72,5.73-2.16,8.09c-1.44,2.37-3.43,4.23-5.96,5.59-2.54,1.36-5.41,2.04-8.63,2.04ZM461.59,174.13c1.48,0,2.8-.34,3.97-1.02s2.1-1.66,2.78-2.92c.68-1.27,1.02-2.77,1.02-4.51s-.34-3.29-1.02-4.54c-.68-1.25-1.61-2.21-2.78-2.9-1.17-.68-2.5-1.02-3.97-1.02s-2.8.34-3.97,1.02c-1.17.68-2.11,1.65-2.81,2.9-.7,1.25-1.05,2.76-1.05,4.54s.35,3.25,1.05,4.51c.7,1.27,1.64,2.24,2.81,2.92,1.17.68,2.5,1.02,3.97,1.02ZM484.24,180.95v-30.55h8.46v8.63l-1.19-2.5c.91-2.16,2.36-3.79,4.37-4.91,2.01-1.12,4.45-1.67,7.32-1.67v8.18c-.38-.04-.72-.07-1.02-.09-.3-.02-.62-.03-.96-.03-2.42,0-4.38.69-5.88,2.07-1.49,1.38-2.24,3.53-2.24,6.44v14.42h-8.86ZM518.99,181.4c-2.61,0-5.12-.31-7.52-.94-2.4-.62-4.31-1.41-5.71-2.36l2.95-6.36c1.4.87,3.06,1.58,4.97,2.13s3.79.82,5.65.82c2.04,0,3.49-.25,4.34-.74.85-.49,1.28-1.17,1.28-2.04,0-.72-.33-1.26-.99-1.62-.66-.36-1.54-.63-2.64-.82s-2.3-.38-3.61-.57c-1.31-.19-2.62-.44-3.95-.77-1.32-.32-2.54-.8-3.63-1.45-1.1-.64-1.98-1.51-2.64-2.61-.66-1.1-.99-2.52-.99-4.26,0-1.93.56-3.63,1.67-5.11,1.12-1.48,2.73-2.64,4.85-3.49,2.12-.85,4.66-1.28,7.61-1.28,2.08,0,4.2.23,6.36.68,2.16.45,3.95,1.12,5.39,1.99l-2.95,6.3c-1.48-.87-2.96-1.47-4.46-1.79-1.5-.32-2.94-.48-4.34-.48-1.97,0-3.41.27-4.32.79-.91.53-1.36,1.21-1.36,2.04,0,.76.33,1.32.99,1.7.66.38,1.54.68,2.64.91,1.1.23,2.3.43,3.61.6,1.31.17,2.62.43,3.95.77,1.32.34,2.53.82,3.61,1.45,1.08.62,1.96,1.48,2.64,2.56s1.02,2.49,1.02,4.23c0,1.89-.57,3.57-1.7,5.02-1.14,1.46-2.77,2.6-4.91,3.44-2.14.83-4.74,1.25-7.81,1.25ZM564.35,181.4c-2.38,0-4.43-.41-6.13-1.22-1.7-.81-3.01-1.92-3.92-3.32-.91-1.4-1.36-2.97-1.36-4.71s.44-3.41,1.33-4.77,2.3-2.43,4.23-3.21c1.93-.78,4.45-1.16,7.55-1.16h8.12v5.17h-7.15c-2.08,0-3.51.34-4.29,1.02-.78.68-1.16,1.53-1.16,2.56,0,1.14.44,2.03,1.34,2.7.89.66,2.11.99,3.66.99s2.8-.35,3.97-1.05c1.17-.7,2.02-1.73,2.56-3.09l1.36,4.09c-.64,1.97-1.82,3.46-3.52,4.49-1.7,1.02-3.9,1.53-6.59,1.53ZM573.66,180.95v-5.96l-.57-1.31v-10.67c0-1.89-.58-3.37-1.73-4.43-1.16-1.06-2.92-1.59-5.31-1.59-1.63,0-3.23.26-4.8.77-1.57.51-2.91,1.2-4,2.07l-3.18-6.19c1.67-1.17,3.67-2.08,6.02-2.72,2.35-.64,4.73-.97,7.15-.97,4.66,0,8.27,1.1,10.84,3.29,2.57,2.2,3.86,5.62,3.86,10.28v17.43h-8.29ZM589.96,180.95v-42.13h8.86v42.13h-8.86ZM611.48,146.14c-1.63,0-2.95-.47-3.97-1.42-1.02-.94-1.53-2.12-1.53-3.52s.51-2.57,1.53-3.52c1.02-.94,2.35-1.42,3.97-1.42s2.95.44,3.97,1.33c1.02.89,1.53,2.03,1.53,3.43,0,1.48-.5,2.7-1.51,3.66-1,.96-2.34,1.45-4,1.45ZM607.05,180.95v-30.55h8.86v30.55h-8.86ZM624.14,180.95v-42.13h8.86v42.13h-8.86ZM631.46,174.7l.23-10.79,14.25-13.51h10.56l-13.68,13.91-4.6,3.75-6.76,6.64ZM646.9,180.95l-10.33-12.83,5.56-6.87,15.5,19.7h-10.73ZM675.46,181.4c-3.48,0-6.54-.68-9.17-2.04-2.63-1.36-4.67-3.23-6.1-5.59-1.44-2.37-2.16-5.06-2.16-8.09s.71-5.78,2.13-8.15c1.42-2.36,3.36-4.22,5.82-5.56,2.46-1.34,5.24-2.02,8.35-2.02s5.69.63,8.09,1.9c2.4,1.27,4.31,3.09,5.71,5.45,1.4,2.37,2.1,5.2,2.1,8.49,0,.34-.02.73-.06,1.16-.04.44-.08.84-.11,1.22h-24.81v-5.17h20.16l-3.41,1.53c0-1.59-.32-2.97-.96-4.14-.64-1.17-1.53-2.09-2.67-2.75-1.14-.66-2.46-.99-3.97-.99s-2.85.33-4,.99c-1.16.66-2.05,1.59-2.7,2.78-.64,1.19-.97,2.6-.97,4.23v1.36c0,1.67.37,3.13,1.11,4.4.74,1.27,1.78,2.23,3.12,2.89,1.34.66,2.92.99,4.74.99,1.63,0,3.06-.24,4.29-.74,1.23-.49,2.36-1.23,3.38-2.21l4.71,5.11c-1.4,1.59-3.16,2.81-5.28,3.66-2.12.85-4.56,1.28-7.32,1.28ZM699.48,181.4c-1.51,0-2.81-.52-3.89-1.56s-1.62-2.37-1.62-4,.54-2.94,1.62-3.95c1.08-1,2.37-1.51,3.89-1.51s2.86.5,3.92,1.51c1.06,1,1.59,2.32,1.59,3.95s-.53,2.96-1.59,4c-1.06,1.04-2.37,1.56-3.92,1.56Z"/>
  </g>
</svg>