<svg width="20" height="20" viewBox="0 0 20 20" fill="none" xmlns="http://www.w3.org/2000/svg">
<path d="M7.1521 9.96923C7.1521 6.78161 7.1564 3.59257 7.14495 0.40495C7.14495 0.0959175 7.21792 -0.00280126 7.5384 6.0152e-05C9.16797 0.0157979 10.7975 0.0157979 12.4271 6.0152e-05C12.7505 -0.00280126 12.8177 0.10021 12.8177 0.406381C12.8091 6.79449 12.8091 13.184 12.8177 19.5721C12.8177 19.8955 12.7433 20.0028 12.4057 19.9985C10.7875 19.9813 9.17083 19.9813 7.5527 19.9985C7.20933 20.0028 7.14352 19.8855 7.14495 19.5693C7.1564 16.3688 7.1521 13.1683 7.1521 9.96923Z" fill="#7D83B5"/>
<path d="M14.3128 2.90308H19.9383C19.9469 2.99893 19.9627 3.10051 19.9627 3.20352C19.9627 8.67598 19.9627 14.147 19.9684 19.6195C19.9684 19.8813 19.924 20.0015 19.6193 19.9986C17.9668 19.9843 16.3129 19.9872 14.659 19.9957C14.3943 19.9957 14.2842 19.9385 14.2842 19.6395C14.2928 14.1441 14.2899 8.6488 14.2913 3.15202C14.2913 3.08191 14.3028 3.01181 14.3114 2.90308H14.3128Z" fill="#7D83B5"/>
<path d="M0.0314756 8.60742H5.66703C5.66703 8.75335 5.66703 8.88069 5.66703 9.00802C5.66703 12.5276 5.66274 16.0485 5.67275 19.5681C5.67275 19.8843 5.60694 20.003 5.26214 20.0001C3.634 19.983 2.00442 19.9873 0.374845 19.9973C0.110164 19.9987 0 19.9443 0 19.6453C0.010015 16.0657 0.00572283 12.4861 0.00715354 8.90644C0.00715354 8.81344 0.0200299 8.72045 0.0300449 8.60742H0.0314756Z" fill="#7D83B5"/>
</svg>
