<svg width="20" height="18" viewBox="0 0 20 18" fill="none" xmlns="http://www.w3.org/2000/svg">
<path d="M10.8464 17.4757C8.31044 17.4757 5.77573 17.4946 3.23976 17.4682C1.96362 17.4557 0.912093 16.9475 0.346175 15.7479C0.139132 15.3099 0.01867 14.7879 0.0161604 14.3036C-0.00768096 9.9745 -0.000152113 5.64416 0.00737673 1.31507C0.00737673 0.816911 0.14666 0.355142 0.659877 0.131786C1.11914 -0.0677286 1.56961 -0.0476516 1.9975 0.239699C2.29364 0.439214 2.389 0.742877 2.44045 1.06662C2.4668 1.22974 2.46053 1.39914 2.46053 1.56603C2.46053 5.69686 2.46053 9.82894 2.46304 13.9598C2.46304 14.1154 2.46555 14.2747 2.49566 14.4266C2.5722 14.8181 2.76795 14.9787 3.16322 14.9962C3.2887 15.0013 3.41418 14.9987 3.53841 14.9987C8.52627 14.9987 13.5141 14.9987 18.5007 15.0013C18.9901 15.0013 19.4682 15.0703 19.7744 15.522C20.0492 15.9273 20.0667 16.3677 19.8609 16.8007C19.6213 17.3063 19.152 17.467 18.6425 17.472C17.005 17.487 15.3662 17.477 13.7274 17.477C12.7675 17.477 11.8076 17.477 10.8477 17.477L10.8464 17.4757Z" fill="#7D83B5"/>
<path d="M12.3611 9.95257C12.0511 9.95257 11.7475 9.73172 11.4777 9.46571C10.8628 8.85587 10.2605 8.23474 9.65068 7.61988C9.46748 7.43417 9.28093 7.43752 9.09104 7.62992C8.07213 8.66012 7.05072 9.68906 6.03433 10.7218C5.51609 11.2488 4.98531 11.304 4.47084 11.0919C3.77693 10.8058 3.61631 10.0053 3.91872 9.36908C4.00154 9.19467 4.1358 9.03656 4.27383 8.89853C5.62275 7.54836 6.97418 6.20195 8.32937 4.85805C9.00948 4.18422 9.73475 4.18296 10.4098 4.85554C11.0234 5.46663 11.637 6.07647 12.2293 6.70764C12.4439 6.93727 12.5731 6.90966 12.7752 6.70387C13.9873 5.46789 15.212 4.24319 16.4279 3.01223C16.7516 2.68472 17.1206 2.48772 17.5936 2.51407C18.5297 2.56552 19.0542 3.56685 18.5573 4.36617C18.4707 4.5067 18.3628 4.6372 18.2461 4.75516C16.6927 6.31363 15.1354 7.86959 13.5782 9.42555C13.267 9.73674 12.9207 9.97139 12.3586 9.95257H12.3611Z" fill="#7D83B5"/>
</svg>
