<svg width="40" height="40" viewBox="0 0 40 40" fill="none" xmlns="http://www.w3.org/2000/svg">
<rect width="40" height="40" rx="7" fill="#B53BFF"/>
<path d="M26.558 18.5653C26.2124 18.8819 25.8933 19.1531 25.5969 19.4482C22.5736 22.4728 19.5529 25.4986 16.5372 28.5307C16.3417 28.7262 16.1298 28.8359 15.8624 28.8876C14.0235 29.2445 12.1858 29.6128 10.3481 29.9736C10.2485 29.9937 10.145 29.9899 10 30C10.0782 29.58 10.145 29.1941 10.222 28.8094C10.5487 27.1887 10.8728 25.5667 11.2121 23.9485C11.2411 23.8085 11.3521 23.671 11.4568 23.565C14.4674 20.543 17.4831 17.5248 20.4976 14.5053C20.7713 14.2304 21.0462 13.9567 21.3174 13.6792C21.4183 13.5758 21.5078 13.5228 21.6327 13.6464C23.2484 15.2608 24.8654 16.874 26.558 18.5641V18.5653Z" fill="#19FDA6"/>
<path d="M30.0414 15.0072C29.8169 15.2318 29.5546 15.4966 29.2897 15.759C28.7322 16.3127 28.1697 16.8601 27.6185 17.4201C27.4659 17.5739 27.3638 17.6181 27.1872 17.4402C25.6522 15.8939 24.1097 14.3552 22.5684 12.8164C22.4549 12.7029 22.3729 12.6146 22.5318 12.4582C23.3239 11.68 24.1059 10.893 24.8942 10.1097C24.9446 10.0593 25.0128 10.0252 25.0493 10C26.7066 11.6624 28.3551 13.3146 30.0414 15.006V15.0072Z" fill="#19FDA6"/>
</svg>
