<svg width="22" height="20" viewBox="0 0 22 20" fill="none" xmlns="http://www.w3.org/2000/svg">
<path d="M10.9964 19.9951C9.75314 19.9951 8.5085 20.0093 7.26528 19.9894C6.47207 19.9779 5.69737 19.8253 5.08787 19.2733C4.75036 18.968 4.43564 18.6085 4.20636 18.2177C3.0016 16.1664 1.82531 14.0966 0.640478 12.0325C0.314365 11.4634 0.0437904 10.8685 0.00534038 10.2038C-0.0316856 9.56474 0.124963 8.95136 0.439683 8.39789C1.71708 6.15405 2.9959 3.91165 4.30035 1.68493C4.98248 0.523788 6.0363 -0.0040051 7.38063 0.00312724C9.77308 0.014539 12.1669 0.0245242 14.5594 0.000274305C16.076 -0.0154168 17.1512 0.642184 17.8903 1.94598C19.0524 3.99581 20.2229 6.04136 21.4163 8.07265C22.1782 9.36931 22.201 10.6346 21.4405 11.9384C20.2358 14.0053 19.0495 16.0823 17.8675 18.1621C17.1626 19.4017 16.1045 19.9979 14.6918 19.9965C13.46 19.9951 12.2282 19.9965 10.9964 19.9965V19.9951ZM9.58367 11.3193C9.47117 11.2194 9.36152 11.131 9.26183 11.0311C8.71641 10.4877 8.17953 9.93562 7.62842 9.39641C7.34218 9.1154 7.01179 8.8943 6.58457 8.97846C5.71731 9.14964 5.3855 10.1425 6.0007 10.7858C6.90926 11.7358 7.83633 12.6687 8.7748 13.5888C9.28319 14.0881 9.93257 14.0695 10.4495 13.556C12.278 11.733 14.1051 9.90709 15.9108 8.05981C16.1259 7.84014 16.2868 7.49636 16.3252 7.1911C16.3822 6.73035 16.1074 6.37944 15.683 6.18258C15.2216 5.96861 14.82 6.12838 14.4811 6.44648C14.041 6.86016 13.6252 7.29951 13.198 7.72602C12.006 8.91141 10.8126 10.0968 9.5851 11.3164L9.58367 11.3193Z" fill="#02D488"/>
</svg>
