<svg width="15" height="15" viewBox="0 0 15 15" fill="none" xmlns="http://www.w3.org/2000/svg">
<path d="M7.16669 0.777658C7.40655 0.777658 7.6472 0.766427 7.88706 0.780064C8.37478 0.807339 8.69566 1.16351 8.67079 1.63439C8.64752 2.06998 8.28333 2.39005 7.81325 2.36999C6.77523 2.32587 5.76528 2.42615 4.80587 2.86654C2.58863 3.88612 1.30353 6.22208 1.62842 8.65992C1.94528 11.0392 3.80956 12.9476 6.20889 13.3487C9.32858 13.8709 12.2469 11.6553 12.5975 8.50269C12.6737 7.81762 12.6135 7.14619 12.4515 6.47958C12.3456 6.04399 12.5983 5.63729 13.0274 5.52659C13.467 5.41428 13.8818 5.66697 13.9933 6.13544C14.5083 8.29653 14.1577 10.3124 12.8301 12.0941C11.241 14.2271 9.06546 15.1913 6.41906 14.9691C3.11727 14.6907 0.447603 12.0612 0.0529291 8.78024C-0.411535 4.91853 2.22925 1.44106 6.07091 0.862689C6.4327 0.808141 6.8009 0.79691 7.16589 0.765625C7.16589 0.769636 7.16589 0.773647 7.16669 0.777658Z" fill="#7D83B5"/>
<path d="M7.91082 11.8629C7.78648 12.3787 7.54182 12.6194 7.13591 12.6338C6.71156 12.649 6.46368 12.426 6.29121 11.8757C6.05938 11.83 5.82675 11.8035 5.60534 11.7362C4.6331 11.4402 3.94803 10.5192 3.94322 9.52053C3.94081 9.0705 4.25046 8.71835 4.67 8.69268C5.12885 8.6638 5.47058 8.9598 5.52352 9.43149C5.5909 10.0291 5.85242 10.2634 6.45085 10.2634C6.91772 10.2634 7.38459 10.265 7.85146 10.2634C8.33598 10.2609 8.67931 9.93285 8.67931 9.47721C8.67931 9.02157 8.33758 8.69829 7.85066 8.69187C7.23057 8.68385 6.60727 8.71433 5.992 8.65497C4.82482 8.54267 3.936 7.49261 3.94242 6.29816C3.94883 5.11975 4.8553 4.09857 6.00964 3.96861C6.1019 3.95819 6.19415 3.94615 6.29843 3.93332C6.31207 3.87476 6.3233 3.817 6.33774 3.76085C6.42919 3.39666 6.73883 3.156 7.11104 3.15921C7.47523 3.16242 7.79049 3.39746 7.86269 3.75684C7.89558 3.91968 7.97419 3.94535 8.11377 3.9614C9.27935 4.09456 10.1016 4.91038 10.2532 6.07355C10.3326 6.6816 9.98447 7.1212 9.43818 7.10355C9.07078 7.09152 8.76194 6.82519 8.69937 6.4618C8.68011 6.3503 8.68092 6.23478 8.65685 6.12488C8.58225 5.78797 8.27341 5.53769 7.91724 5.53368C7.37657 5.52726 6.8367 5.52646 6.29602 5.53368C5.85883 5.53929 5.52833 5.88423 5.52833 6.31741C5.52833 6.74979 5.85803 7.09392 6.29602 7.10034C6.82306 7.10836 7.35009 7.10034 7.87713 7.10355C9.13014 7.11157 10.1353 8.03087 10.258 9.27666C10.3735 10.4559 9.55048 11.5509 8.35523 11.8019C8.21244 11.8316 8.06644 11.842 7.91002 11.8629H7.91082Z" fill="#7D83B5"/>
<path d="M12.6326 3.16143C12.6326 3.4438 12.6358 3.69007 12.6326 3.93554C12.6261 4.39599 12.2844 4.73852 11.8384 4.73611C11.4028 4.73371 11.0675 4.39679 11.0579 3.94356C11.0523 3.69167 11.0571 3.43979 11.0571 3.16063C10.7843 3.16063 10.5332 3.16785 10.283 3.15902C9.6356 3.13736 9.26258 2.48358 9.59388 1.95174C9.75031 1.69985 9.98615 1.57872 10.2806 1.57471C10.5316 1.5707 10.7835 1.57471 11.0579 1.57471C11.0579 1.32202 11.0571 1.09019 11.0579 0.859161C11.0595 0.341752 11.3795 -0.00318654 11.8504 2.21974e-05C12.3109 0.00323093 12.6301 0.350576 12.6326 0.851941C12.6334 1.08377 12.6326 1.3156 12.6326 1.57391C12.9061 1.57391 13.1636 1.56909 13.4211 1.57471C13.8607 1.58514 14.196 1.91243 14.2153 2.34079C14.2337 2.75231 13.9233 3.10688 13.4909 3.151C13.3128 3.16945 13.1315 3.15822 12.9518 3.15982C12.8532 3.16063 12.7553 3.15982 12.6326 3.15982V3.16143Z" fill="#7D83B5"/>
</svg>
