<svg width="13" height="15" viewBox="0 0 13 15" fill="none" xmlns="http://www.w3.org/2000/svg">
<path d="M6.01239 14.9996C5.20841 14.9996 4.40365 15.0004 3.59967 14.9996C3.2627 14.9996 3.19055 14.9267 3.18976 14.5929C3.18976 13.3536 3.19214 12.1136 3.185 10.8743C3.185 10.7578 3.14536 10.6262 3.08272 10.527C2.17329 9.08322 1.27735 7.62989 0.331448 6.21064C-0.00869508 5.70082 -0.0641962 5.20448 0.0618707 4.63996C0.390913 3.17076 1.21709 2.03775 2.4286 1.18303C6.08692 -1.39619 10.3224 0.616125 11.6481 3.6346C11.8781 4.15789 12.0144 4.70418 12.0517 5.27584C12.0676 5.52322 11.9914 5.73968 11.8598 5.94662C10.8933 7.46338 9.9276 8.98015 8.96901 10.5025C8.89686 10.6166 8.85484 10.7697 8.85405 10.9045C8.84533 12.1239 8.84929 13.3441 8.8485 14.5636C8.8485 14.9315 8.77952 14.9996 8.40607 14.9996C7.60844 14.9996 6.81081 14.9996 6.01318 14.9996H6.01239ZM4.93012 10.3114C4.93329 10.286 4.93567 10.2789 4.93408 10.2733C4.59314 8.44179 4.25221 6.61104 3.9081 4.7803C3.89621 4.71925 3.86053 4.6574 3.82247 4.60666C3.1628 3.73608 2.25575 3.54421 1.28369 4.04213C0.867431 4.25542 0.566931 4.52261 0.58041 5.03005C0.582789 5.11489 0.550281 5.20211 0.559795 5.28457C0.572481 5.3924 0.586753 5.51212 0.642254 5.60013C1.61194 7.13751 2.58797 8.67172 3.56558 10.2036C3.59571 10.2511 3.66072 10.3058 3.71068 10.3066C4.11742 10.3153 4.52496 10.3114 4.93012 10.3114ZM7.09625 10.3122C7.49427 10.3122 7.87643 10.3074 8.25781 10.3153C8.37277 10.3177 8.43303 10.2741 8.4917 10.1814C9.45029 8.66696 10.4128 7.15495 11.3722 5.64136C11.4142 5.57555 11.4745 5.49706 11.4682 5.42966C11.4396 5.11648 11.4333 4.78902 11.331 4.49883C11.2763 4.34263 11.0535 4.23084 10.8878 4.13014C9.90778 3.5339 8.99042 3.67424 8.27842 4.52896C8.19913 4.6241 8.14284 4.75493 8.11905 4.87782C7.90656 5.9704 7.70359 7.06457 7.49823 8.15873C7.36503 8.86994 7.23262 9.58115 7.09625 10.313V10.3122ZM6.50952 10.305C6.51983 10.2622 6.52617 10.2376 6.53093 10.2123C6.84094 8.56231 7.14778 6.91234 7.46176 5.26316C7.58941 4.59239 7.59496 4.58525 7.0463 4.16741C6.70219 3.90497 6.32874 3.72657 5.8776 3.77811C5.33052 3.84074 4.93963 4.17137 4.57729 4.54244C4.51782 4.60349 4.48452 4.73114 4.50038 4.81677C4.7644 6.26773 5.03715 7.7171 5.30911 9.16648C5.38047 9.54626 5.45421 9.92605 5.52715 10.3058H6.50873L6.50952 10.305Z" fill="#7D83B5"/>
</svg>
