<svg width="40" height="40" viewBox="0 0 40 40" fill="none" xmlns="http://www.w3.org/2000/svg">
<rect width="40" height="40" rx="7" fill="#B53BFF"/>
<path d="M20.6349 10C23.1742 10 25.7135 10 28.2528 10C28.2808 10.0053 28.3095 10.0122 28.3383 10.0153C29.1905 10.0969 29.7758 10.8349 29.8053 11.514C29.8068 11.543 29.8144 11.5713 29.8197 11.6003V20.9264C29.797 20.9989 29.8076 21.0752 29.7932 21.1485C29.7327 21.456 29.5996 21.727 29.3901 21.9574C29.0552 22.3252 28.6355 22.5069 28.1439 22.5076C25.6825 22.5099 23.2211 22.5084 20.7597 22.5092C20.6758 22.5092 20.5926 22.5015 20.5094 22.4893C20.0307 22.4183 19.6526 22.1802 19.3759 21.7819C19.1717 21.4881 19.084 21.1584 19.084 20.799C19.0863 17.7526 19.0847 14.7062 19.0855 11.6598C19.0855 11.601 19.0855 11.5423 19.0923 11.4843C19.1785 10.7563 19.7139 10.1748 20.4262 10.0359C20.4958 10.0221 20.5654 10.0122 20.6357 10.0008L20.6349 10Z" fill="#19FDA6"/>
<path d="M15.9946 29.9992H11.4514C11.4014 29.974 11.3462 29.9702 11.2933 29.9557C10.6195 29.7733 10.2014 29.3399 10.0411 28.6546C10.0312 28.6134 10.0237 28.5722 10.001 28.5355V20.6143C10.0244 20.5784 10.0327 20.5372 10.0411 20.4952C10.1976 19.7253 10.8857 19.1598 11.6707 19.1636C13.0462 19.1705 14.4217 19.1651 15.7972 19.1659C15.8554 19.1659 15.9137 19.1659 15.9711 19.1728C16.8256 19.2765 17.4457 19.9778 17.4465 20.8486C17.448 23.3387 17.448 25.8287 17.4465 28.3188C17.4465 29.098 16.9383 29.7504 16.1904 29.9466C16.1254 29.9633 16.0573 29.971 15.9946 29.9985V29.9992Z" fill="#19FDA6"/>
<path d="M20.538 29.9994C20.473 29.9696 20.4011 29.9627 20.3323 29.9452C19.5996 29.7575 19.0869 29.1042 19.0846 28.3434C19.0816 27.4948 19.0808 26.6462 19.0846 25.7976C19.0884 24.9666 19.7342 24.2523 20.5546 24.1668C20.628 24.1592 20.7028 24.1607 20.777 24.1607C23.2285 24.1607 25.6801 24.1622 28.1324 24.1592C28.5544 24.1592 28.9257 24.2874 29.2433 24.5636C29.5745 24.8513 29.7696 25.2153 29.8044 25.6602C29.8067 25.6892 29.8142 25.7175 29.8188 25.7465V28.4197C29.7938 28.5044 29.8067 28.5937 29.7847 28.6799C29.6123 29.3591 29.1904 29.7857 28.5181 29.9597C28.4682 29.9727 28.4168 29.9788 28.3691 30.0001H20.5388L20.538 29.9994Z" fill="#19FDA6"/>
<path d="M15.8983 10C15.9626 10.0237 16.0314 10.0206 16.0979 10.0328C16.7936 10.1625 17.3404 10.744 17.4296 11.4507C17.4402 11.5346 17.447 11.6186 17.447 11.7033C17.447 13.0823 17.4508 14.4612 17.4447 15.8394C17.4425 16.44 17.1778 16.9086 16.6848 17.2413C16.4095 17.4275 16.0995 17.5099 15.7698 17.5114C15.2865 17.5137 14.8033 17.5122 14.3194 17.5122C13.4361 17.5122 12.5537 17.5153 11.6704 17.5107C11.2046 17.5084 10.8016 17.3382 10.4741 17.0017C10.2495 16.7712 10.1089 16.4927 10.0416 16.1767C10.0318 16.1325 10.025 16.0875 10 16.0478V11.4438C10.0348 11.4019 10.0355 11.3477 10.0492 11.2981C10.2223 10.6464 10.6299 10.2312 11.2742 10.0519C11.371 10.0252 11.4708 10.0237 11.5676 10H15.8983Z" fill="#19FDA6"/>
</svg>
