<svg width="36" height="36" viewBox="0 0 36 36" fill="none" xmlns="http://www.w3.org/2000/svg">
<circle cx="18" cy="18" r="18" fill="#07E993"/>
<path d="M14.8028 20.7426C14.0281 20.657 13.0698 20.5644 12.1156 20.4402C10.946 20.2883 9.83029 19.9196 8.78083 19.4073C8.27267 19.1587 7.79489 18.7514 7.44277 18.3067C6.6681 17.3249 7.15693 16.3252 7.99926 15.6886C8.99901 14.9333 10.1755 14.5659 11.3782 14.305C13.0339 13.9473 14.7117 13.8037 16.4074 13.9252C18.2135 14.055 19.9921 14.3312 21.6409 15.1128C22.1573 15.3572 22.6572 15.7231 23.0383 16.1457C23.7771 16.9687 23.7508 17.8869 22.7925 18.7334C22.08 19.3631 21.2432 19.7815 20.3221 20.0383C18.9468 20.4208 17.5563 20.6929 16.1271 20.7412C15.7487 20.7536 15.3703 20.7426 14.8042 20.7426H14.8028Z" fill="#B53BFF"/>
<path d="M15.6657 12.489C15.3909 12.489 15.1147 12.4849 14.8399 12.489C13.8429 12.507 12.7658 11.6177 12.607 10.629C12.4993 9.96066 12.8169 9.45526 13.2685 9.012C14.0514 8.24562 15.0525 7.91007 16.0716 7.62009C17.8971 7.10088 19.7599 6.93932 21.6531 7.01941C23.2798 7.08707 24.8636 7.3591 26.4047 7.88383C27.2774 8.18072 28.0741 8.60603 28.6458 9.34617C29.2534 10.1319 29.1636 11.0018 28.4539 11.6964C27.6847 12.449 26.7264 12.8439 25.7225 13.1574C24.6109 13.504 23.4676 13.6945 22.3104 13.7498C21.9348 13.7677 21.5385 13.5689 21.167 13.4294C19.3926 12.7652 17.5395 12.5677 15.6657 12.4876V12.489Z" fill="#B53BFF"/>
<path d="M23.4738 24.1531C23.8107 25.1004 23.4903 26.4122 22.7902 27.0308C21.8292 27.88 20.6499 28.246 19.4375 28.536C17.5567 28.9861 15.6429 29.0842 13.7248 28.935C12.1437 28.8121 10.5778 28.5373 9.12101 27.8704C8.28007 27.4851 7.43497 27.017 7.1657 26.0559C7 25.4649 7.05385 24.8118 7 24.0688C9.56427 25.8281 12.3868 26.2451 15.2714 26.2492C18.1616 26.2534 20.9896 25.8391 23.4724 24.1531H23.4738Z" fill="#B53BFF"/>
<path d="M23.4905 20.0355C23.8261 21.4067 23.4505 22.4286 22.3734 23.1867C21.4275 23.8522 20.3573 24.2278 19.2416 24.4502C17.6757 24.7622 16.0891 24.9597 14.4886 24.8658C12.5913 24.7539 10.7202 24.4709 8.98864 23.6354C8.51086 23.4048 8.08555 23.0527 7.66991 22.7172C7.31088 22.4272 7.10513 22.0143 7.07475 21.5531C7.04299 21.0518 7.06785 20.5478 7.06785 20.0093C7.49868 20.2606 7.89499 20.5257 8.31753 20.7342C9.98562 21.5559 11.7725 21.9149 13.6145 22.0695C15.2122 22.2035 16.8085 22.1634 18.3827 21.9135C20.0715 21.6456 21.7258 21.212 23.1784 20.2344C23.271 20.1722 23.3662 20.1156 23.4919 20.0369L23.4905 20.0355Z" fill="#B53BFF"/>
<path d="M29.0218 13.0854C29.0218 13.6778 29.0535 14.2357 29.0135 14.7867C28.9707 15.3749 28.5923 15.785 28.1449 16.1303C27.2266 16.8387 26.144 17.1576 24.9979 17.4794C24.8736 16.5777 24.6858 15.7326 23.9277 15.0532C25.8278 14.7121 27.5139 14.1639 29.0218 13.0868V13.0854Z" fill="#B53BFF"/>
<path d="M24.9798 21.6318C24.9798 20.7509 24.9729 19.9292 24.9909 19.1076C24.9922 19.0344 25.14 18.935 25.238 18.8991C26.108 18.5815 26.9917 18.3012 27.8493 17.9546C28.258 17.7903 28.6184 17.5058 29.0216 17.2642C29.041 17.318 29.0796 17.3746 29.0796 17.4326C29.0796 17.822 29.0727 18.2128 29.07 18.6022C29.0658 19.1532 28.8283 19.5937 28.4403 19.9665C27.6035 20.7688 26.5512 21.1554 25.4756 21.4965C25.3361 21.5407 25.1939 21.5739 24.9798 21.6318Z" fill="#B53BFF"/>
</svg>
