<svg width="50" height="50" viewBox="0 0 50 50" fill="none" xmlns="http://www.w3.org/2000/svg">
<circle cx="25" cy="25" r="25" fill="#242842"/>
<path d="M27.2805 25.0233C28.1181 25.8605 28.9118 26.6739 29.7268 27.4648C31.0504 28.7495 31.7524 30.2974 31.7486 32.1473C31.7486 32.4131 31.824 32.5371 32.094 32.596C32.7244 32.7339 33.066 33.2503 32.9894 33.897C32.9103 34.5688 32.4745 34.9925 31.8164 34.9937C29.2998 35.0012 26.7832 34.9975 24.2678 34.9975C22.5975 34.9975 20.9261 34.9912 19.2558 35C18.7372 35.0025 18.368 34.7781 18.1482 34.3319C17.9259 33.877 17.9423 33.3957 18.2751 33.0109C18.4509 32.8066 18.7435 32.6838 19.0059 32.581C19.1792 32.5133 19.2521 32.4582 19.2521 32.2639C19.2584 30.3776 19.929 28.7746 21.299 27.4623C22.0525 26.7404 22.7734 25.9859 23.5231 25.2614C23.719 25.0709 23.7265 24.9556 23.5294 24.7613C22.6515 23.899 21.7725 23.038 20.9248 22.1468C19.7795 20.9411 19.2772 19.4684 19.2533 17.824C19.2496 17.5884 19.2031 17.4643 18.9394 17.433C18.3592 17.3653 17.9272 16.7411 18.0239 16.1508C18.1507 15.3699 18.5664 15.0165 19.4028 15.0052C20.1337 14.9952 20.8645 15.0027 21.5954 15.0027C24.9057 15.0027 28.2148 15.0002 31.5251 15.0052C32.0136 15.0052 32.4958 15.0754 32.791 15.5366C33.1752 16.1382 33.0836 17.2851 32.0149 17.4455C31.7775 17.4818 31.7499 17.6297 31.7511 17.8265C31.7612 19.0661 31.4698 20.2292 30.7766 21.2607C30.4652 21.7244 30.091 22.1531 29.7029 22.5592C28.9959 23.2974 28.2587 24.0056 27.5354 24.7287C27.4487 24.8152 27.3746 24.9142 27.2805 25.022V25.0233ZM29.2408 32.5246C29.3563 31.6259 29.1152 30.538 28.5388 29.8963C27.6208 28.8761 26.6387 27.9135 25.6856 26.9234C25.5324 26.7642 25.4219 26.8331 25.2963 26.961C24.5616 27.7004 23.8358 28.4487 23.0823 29.1669C22.2409 29.969 21.7989 30.9404 21.7323 32.0934C21.7097 32.4857 21.7361 32.5233 22.1291 32.5233C24.3921 32.5233 26.6551 32.5233 28.9193 32.5233H29.242L29.2408 32.5246Z" fill="#7D83B5"/>
</svg>
