<svg width="36" height="36" viewBox="0 0 36 36" fill="none" xmlns="http://www.w3.org/2000/svg">
<circle cx="18" cy="18" r="18" fill="#242842"/>
<path d="M14.8018 20.7426C14.0272 20.657 13.0688 20.5644 12.1147 20.4402C10.9451 20.2883 9.82932 19.9196 8.77986 19.4073C8.2717 19.1587 7.79392 18.7514 7.4418 18.3067C6.66713 17.3249 7.15596 16.3252 7.99829 15.6886C8.99803 14.9333 10.1745 14.5659 11.3773 14.305C13.0329 13.9473 14.7107 13.8037 16.4064 13.9252C18.2126 14.055 19.9911 14.3312 21.6399 15.1128C22.1563 15.3572 22.6562 15.7231 23.0373 16.1457C23.7761 16.9687 23.7499 17.8869 22.7915 18.7334C22.079 19.3631 21.2422 19.7815 20.3212 20.0383C18.9458 20.4208 17.5553 20.6929 16.1261 20.7412C15.7477 20.7536 15.3694 20.7426 14.8032 20.7426H14.8018Z" fill="#7D83B5"/>
<path d="M15.6666 12.489C15.3918 12.489 15.1157 12.4849 14.8409 12.489C13.8439 12.507 12.7668 11.6177 12.608 10.629C12.5003 9.96066 12.8179 9.45526 13.2694 9.012C14.0524 8.24562 15.0535 7.91007 16.0726 7.62009C17.8981 7.10088 19.7609 6.93932 21.6541 7.01941C23.2807 7.08707 24.8646 7.3591 26.4056 7.88383C27.2784 8.18072 28.0751 8.60603 28.6468 9.34617C29.2544 10.1319 29.1646 11.0018 28.4549 11.6964C27.6857 12.449 26.7274 12.8439 25.7235 13.1574C24.6119 13.504 23.4685 13.6945 22.3114 13.7498C21.9358 13.7677 21.5395 13.5689 21.168 13.4294C19.3936 12.7652 17.5405 12.5677 15.6666 12.4876V12.489Z" fill="#7D83B5"/>
<path d="M23.4738 24.1531C23.8107 25.1004 23.4903 26.4122 22.7902 27.0308C21.8292 27.88 20.6499 28.246 19.4375 28.536C17.5567 28.9861 15.6429 29.0842 13.7248 28.935C12.1437 28.8121 10.5778 28.5373 9.12101 27.8704C8.28007 27.4851 7.43497 27.017 7.1657 26.0559C7 25.4649 7.05385 24.8118 7 24.0688C9.56427 25.8281 12.3868 26.2451 15.2714 26.2492C18.1616 26.2534 20.9896 25.8391 23.4724 24.1531H23.4738Z" fill="#7D83B5"/>
<path d="M23.4905 20.0355C23.8261 21.4067 23.4505 22.4286 22.3734 23.1867C21.4275 23.8522 20.3573 24.2278 19.2416 24.4502C17.6757 24.7622 16.0891 24.9597 14.4886 24.8658C12.5913 24.7539 10.7202 24.4709 8.98864 23.6354C8.51086 23.4048 8.08555 23.0527 7.66991 22.7172C7.31088 22.4272 7.10513 22.0143 7.07475 21.5531C7.04299 21.0518 7.06785 20.5478 7.06785 20.0093C7.49868 20.2606 7.89499 20.5257 8.31753 20.7342C9.98562 21.5559 11.7725 21.9149 13.6145 22.0695C15.2122 22.2035 16.8085 22.1634 18.3827 21.9135C20.0715 21.6456 21.7258 21.212 23.1784 20.2344C23.271 20.1722 23.3662 20.1156 23.4919 20.0369L23.4905 20.0355Z" fill="#7D83B5"/>
<path d="M29.0218 13.0854C29.0218 13.6778 29.0535 14.2357 29.0135 14.7867C28.9707 15.3749 28.5923 15.785 28.1449 16.1303C27.2266 16.8387 26.144 17.1576 24.9979 17.4794C24.8736 16.5777 24.6858 15.7326 23.9277 15.0532C25.8278 14.7121 27.5139 14.1639 29.0218 13.0868V13.0854Z" fill="#7D83B5"/>
<path d="M24.9788 21.6318C24.9788 20.7509 24.9719 19.9292 24.9899 19.1076C24.9913 19.0344 25.139 18.935 25.2371 18.8991C26.107 18.5815 26.9908 18.3012 27.8483 17.9546C28.257 17.7903 28.6174 17.5058 29.0206 17.2642C29.04 17.318 29.0786 17.3746 29.0786 17.4326C29.0786 17.822 29.0717 18.2128 29.069 18.6022C29.0648 19.1532 28.8273 19.5937 28.4393 19.9665C27.6025 20.7688 26.5503 21.1554 25.4746 21.4965C25.3351 21.5407 25.1929 21.5739 24.9788 21.6318Z" fill="#7D83B5"/>
</svg>
