<svg width="50" height="50" viewBox="0 0 50 50" fill="none" xmlns="http://www.w3.org/2000/svg">
<circle cx="25" cy="25" r="25" fill="#07E993"/>
<path d="M23.7572 29.884C23.2884 30.0376 22.891 30.1546 22.5024 30.2969C21.9997 30.4806 21.5446 30.3824 21.1647 30.0388C20.731 29.6474 20.3273 29.2207 19.9249 28.7978C19.5363 28.3887 19.525 27.9004 19.688 27.3932C19.8058 27.0281 19.9349 26.6669 20.0766 26.2553C19.9249 26.2427 19.8183 26.2276 19.7105 26.2276C18.5121 26.2264 17.3123 26.2402 16.1139 26.2163C15.8481 26.2113 15.5522 26.1219 15.3291 25.9772C14.9894 25.7569 14.8941 25.2497 15.131 24.8444C15.8619 23.5908 16.6103 22.3472 17.3838 21.1201C17.9191 20.2692 18.7691 19.9936 19.7243 19.9835C20.652 19.9734 21.5809 19.9747 22.5086 19.9848C22.733 19.9873 22.8734 19.9067 22.995 19.7217C23.9553 18.2768 25.0974 17.0068 26.6481 16.1899C27.9469 15.5027 29.3259 15.0131 30.8152 15.0005C31.8018 14.993 32.7909 15.071 33.7775 15.1289C34.2777 15.1578 34.7252 15.5694 34.808 16.0779C35.2856 18.9841 34.9145 21.733 33.2159 24.205C32.5301 25.2031 31.6513 26.0426 30.6484 26.7059C30.0818 27.081 29.9464 27.5039 29.9765 28.1269C30.0179 28.9728 30.0016 29.8236 29.9539 30.6694C29.8988 31.6688 29.3497 32.3862 28.5198 32.8909C27.4605 33.5354 26.3736 34.1357 25.3268 34.8003C24.4919 35.3302 23.7134 34.7285 23.7447 33.8978C23.7898 32.6958 23.756 31.49 23.756 30.2855C23.756 30.1735 23.756 30.0627 23.756 29.8828L23.7572 29.884ZM31.5887 19.9596C31.5962 19.1264 30.8465 18.3737 30.0128 18.3787C29.1767 18.3838 28.4546 19.0961 28.442 19.9294C28.4295 20.8029 29.1102 21.509 29.9815 21.5253C30.8628 21.5417 31.5799 20.8432 31.5887 19.9608V19.9596Z" fill="#B53BFF"/>
</svg>
