<svg width="50" height="50" viewBox="0 0 50 50" fill="none" xmlns="http://www.w3.org/2000/svg">
<circle cx="25" cy="25" r="25" fill="#242842"/>
<path d="M18.9662 16.9671C19.081 16.13 18.7222 14.9632 20.0666 15.0188C21.2539 15.0683 20.9423 16.1312 21.0438 16.92H28.9734C29.0834 16.1288 28.7488 15.0381 30.0799 15.0007C30.7563 14.9813 30.935 15.3715 31.057 16.9671C31.3373 16.9671 31.6259 16.9611 31.9158 16.9671C33.7566 17.0082 34.9959 18.2414 35.0116 20.081C35.0273 21.9822 35.0201 23.8846 35.014 25.7858C35.0116 26.6385 34.6637 26.9937 33.811 26.9985C31.969 27.0081 30.1282 26.9961 28.2862 27.0033C25.6566 27.013 24.0308 28.6448 24.02 31.2804C24.0163 32.1005 24.0248 32.9219 24.0175 33.742C24.0091 34.6407 23.6697 34.9886 22.7903 34.9922C21.2491 34.9982 19.7078 35.0019 18.1666 34.9922C16.2352 34.9789 15.0128 33.7662 15.008 31.8384C14.9971 27.9563 14.9983 24.073 15.0056 20.1897C15.0092 18.2027 16.2412 16.9864 18.2354 16.9683C18.4698 16.9659 18.7053 16.9683 18.9662 16.9683V16.9671Z" fill="#7D83B5"/>
<path d="M32.6802 31.9748C32.2067 31.5376 31.7791 31.174 31.389 30.7766C30.9107 30.2898 30.8986 29.7076 31.3213 29.2909C31.7477 28.8694 32.3142 28.8911 32.8107 29.3743C33.4267 29.9734 34.0342 30.5833 34.6345 31.1994C35.1491 31.7284 35.1624 32.2575 34.6599 32.7793C34.0499 33.4134 33.4267 34.0354 32.7925 34.6466C32.3178 35.1044 31.697 35.1105 31.2984 34.6937C30.8925 34.2698 30.9264 33.696 31.4059 33.2056C31.7828 32.8203 32.1814 32.4556 32.6802 31.976V31.9748Z" fill="#7D83B5"/>
<path d="M27.7073 32.0066C27.1843 31.5222 26.7603 31.1586 26.369 30.76C25.8931 30.2757 25.8895 29.685 26.3243 29.2732C26.7422 28.877 27.3003 28.8927 27.7701 29.3468C28.4163 29.9725 29.0541 30.6079 29.6774 31.2553C30.1412 31.7372 30.146 32.259 29.6834 32.7422C29.0481 33.4065 28.397 34.0575 27.7327 34.6929C27.3075 35.0987 26.7157 35.0951 26.3279 34.7267C25.9088 34.3305 25.9003 33.7556 26.3219 33.2809C26.5212 33.0574 26.7362 32.8473 26.956 32.6431C27.1614 32.4535 27.3812 32.2808 27.7061 32.0054L27.7073 32.0066Z" fill="#7D83B5"/>
</svg>
