<svg width="50" height="50" viewBox="0 0 50 50" fill="none" xmlns="http://www.w3.org/2000/svg">
<circle cx="25" cy="25" r="25" fill="#242842"/>
<path d="M22.1193 27.4743C21.4204 27.3971 20.5558 27.3136 19.6949 27.2015C18.6397 27.0644 17.6331 26.7318 16.6862 26.2696C16.2278 26.0454 15.7967 25.6778 15.479 25.2767C14.7801 24.3909 15.2212 23.4889 15.9811 22.9146C16.8831 22.2331 17.9445 21.9017 19.0297 21.6663C20.5234 21.3436 22.0371 21.214 23.567 21.3237C25.1965 21.4408 26.8011 21.6899 28.2887 22.3951C28.7546 22.6156 29.2056 22.9457 29.5494 23.327C30.216 24.0695 30.1923 24.8979 29.3277 25.6616C28.6848 26.2297 27.9299 26.6072 27.0989 26.8389C25.858 27.184 24.6035 27.4295 23.3141 27.4731C22.9727 27.4843 22.6313 27.4743 22.1206 27.4743H22.1193Z" fill="#7D83B5"/>
<path d="M22.8977 20.0279C22.6498 20.0279 22.4006 20.0242 22.1527 20.0279C21.2532 20.0441 20.2814 19.2418 20.1382 18.3498C20.041 17.7468 20.3275 17.2908 20.7349 16.8909C21.4413 16.1995 22.3445 15.8968 23.264 15.6351C24.9109 15.1667 26.5916 15.0209 28.2996 15.0932C29.7672 15.1542 31.1961 15.3997 32.5865 15.8731C33.3739 16.1409 34.0927 16.5247 34.6085 17.1924C35.1566 17.9013 35.0757 18.6862 34.4353 19.3128C33.7414 19.9918 32.8768 20.3481 31.9711 20.6309C30.9682 20.9436 29.9366 21.1155 28.8926 21.1654C28.5537 21.1816 28.1962 21.0022 27.8611 20.8763C26.2602 20.2771 24.5883 20.0989 22.8977 20.0267V20.0279Z" fill="#7D83B5"/>
<path d="M29.9428 30.5513C30.2468 31.406 29.9578 32.5895 29.3261 33.1476C28.459 33.9138 27.3951 34.244 26.3013 34.5056C24.6044 34.9117 22.8777 35.0002 21.1473 34.8656C19.7208 34.7548 18.308 34.5068 16.9937 33.9051C16.235 33.5575 15.4725 33.1352 15.2296 32.2681C15.0801 31.7349 15.1287 31.1456 15.0801 30.4753C17.3936 32.0625 19.9401 32.4388 22.5426 32.4425C25.1501 32.4462 27.7016 32.0725 29.9416 30.5513H29.9428Z" fill="#7D83B5"/>
<path d="M29.9578 26.8364C30.2605 28.0735 29.9217 28.9954 28.9499 29.6794C28.0965 30.2799 27.131 30.6188 26.1244 30.8193C24.7116 31.1009 23.2802 31.279 21.8362 31.1943C20.1245 31.0934 18.4364 30.838 16.8741 30.0843C16.4431 29.8762 16.0593 29.5586 15.6843 29.2558C15.3604 28.9942 15.1748 28.6217 15.1474 28.2056C15.1187 27.7533 15.1412 27.2986 15.1412 26.8127C15.5299 27.0395 15.8874 27.2787 16.2686 27.4668C17.7736 28.2081 19.3857 28.532 21.0476 28.6715C22.4891 28.7924 23.9292 28.7562 25.3495 28.5307C26.8731 28.2891 28.3656 27.8979 29.6762 27.0158C29.7597 26.9598 29.8457 26.9087 29.9591 26.8377L29.9578 26.8364Z" fill="#7D83B5"/>
<path d="M34.9474 20.5659C34.9474 21.1004 34.9761 21.6037 34.94 22.1008C34.9013 22.6315 34.56 23.0015 34.1563 23.313C33.3278 23.9521 32.3511 24.2399 31.3171 24.5301C31.205 23.7166 31.0355 22.9542 30.3516 22.3412C32.0658 22.0335 33.587 21.5389 34.9474 20.5672V20.5659Z" fill="#7D83B5"/>
<path d="M31.302 28.2767C31.302 27.4819 31.2957 26.7406 31.3119 25.9994C31.3132 25.9333 31.4465 25.8436 31.5349 25.8112C32.3198 25.5247 33.1171 25.2718 33.8908 24.9591C34.2596 24.8108 34.5847 24.5542 34.9485 24.3362C34.9659 24.3848 35.0008 24.4358 35.0008 24.4882C35.0008 24.8395 34.9946 25.1921 34.9921 25.5434C34.9884 26.0405 34.7741 26.4379 34.424 26.7743C33.669 27.4981 32.7197 27.8469 31.7492 28.1546C31.6234 28.1945 31.4951 28.2244 31.302 28.2767Z" fill="#7D83B5"/>
</svg>
